<svg xmlns="http://www.w3.org/2000/svg" xmlns:xlink="http://www.w3.org/1999/xlink" width="400" zoomAndPan="magnify" viewBox="0 0 300 74.999997" height="100" preserveAspectRatio="xMidYMid meet" version="1.0"><defs><g/><clipPath id="5a19fc9b41"><path d="M 66.871094 10.242188 L 123.871094 10.242188 L 123.871094 67.242188 L 66.871094 67.242188 Z M 66.871094 10.242188 " clip-rule="nonzero"/></clipPath><clipPath id="51110f6389"><path d="M 66.871094 61.15625 L 66.871094 16.332031 C 66.871094 15.523438 67.027344 14.75 67.335938 14.003906 C 67.644531 13.257812 68.085938 12.597656 68.65625 12.027344 C 69.226562 11.457031 69.882812 11.015625 70.628906 10.707031 C 71.375 10.398438 72.152344 10.242188 72.960938 10.242188 L 117.785156 10.242188 C 118.589844 10.242188 119.367188 10.398438 120.113281 10.707031 C 120.859375 11.015625 121.519531 11.457031 122.089844 12.027344 C 122.660156 12.597656 123.097656 13.257812 123.410156 14.003906 C 123.71875 14.75 123.871094 15.523438 123.871094 16.332031 L 123.871094 61.15625 C 123.871094 61.964844 123.71875 62.738281 123.410156 63.484375 C 123.097656 64.230469 122.660156 64.890625 122.089844 65.460938 C 121.519531 66.03125 120.859375 66.472656 120.113281 66.78125 C 119.367188 67.089844 118.589844 67.242188 117.785156 67.242188 L 72.960938 67.242188 C 72.152344 67.242188 71.375 67.089844 70.628906 66.78125 C 69.882812 66.472656 69.226562 66.03125 68.65625 65.460938 C 68.085938 64.890625 67.644531 64.230469 67.335938 63.484375 C 67.027344 62.738281 66.871094 61.964844 66.871094 61.15625 Z M 66.871094 61.15625 " clip-rule="nonzero"/></clipPath><clipPath id="f73d6d99b2"><path d="M 91 17 L 109 17 L 109 37 L 91 37 Z M 91 17 " clip-rule="nonzero"/></clipPath><clipPath id="a087879445"><path d="M 66.871094 61.15625 L 66.871094 16.332031 C 66.871094 15.523438 67.027344 14.75 67.335938 14.003906 C 67.644531 13.257812 68.085938 12.597656 68.65625 12.027344 C 69.226562 11.457031 69.882812 11.015625 70.628906 10.707031 C 71.375 10.398438 72.152344 10.242188 72.960938 10.242188 L 117.785156 10.242188 C 118.589844 10.242188 119.367188 10.398438 120.113281 10.707031 C 120.859375 11.015625 121.519531 11.457031 122.089844 12.027344 C 122.660156 12.597656 123.097656 13.257812 123.410156 14.003906 C 123.71875 14.75 123.871094 15.523438 123.871094 16.332031 L 123.871094 61.15625 C 123.871094 61.964844 123.71875 62.738281 123.410156 63.484375 C 123.097656 64.230469 122.660156 64.890625 122.089844 65.460938 C 121.519531 66.03125 120.859375 66.472656 120.113281 66.78125 C 119.367188 67.089844 118.589844 67.242188 117.785156 67.242188 L 72.960938 67.242188 C 72.152344 67.242188 71.375 67.089844 70.628906 66.78125 C 69.882812 66.472656 69.226562 66.03125 68.65625 65.460938 C 68.085938 64.890625 67.644531 64.230469 67.335938 63.484375 C 67.027344 62.738281 66.871094 61.964844 66.871094 61.15625 Z M 66.871094 61.15625 " clip-rule="nonzero"/></clipPath><clipPath id="f5e1aec6d8"><path d="M 91 40 L 109 40 L 109 60 L 91 60 Z M 91 40 " clip-rule="nonzero"/></clipPath><clipPath id="50fef5e97d"><path d="M 66.871094 61.15625 L 66.871094 16.332031 C 66.871094 15.523438 67.027344 14.75 67.335938 14.003906 C 67.644531 13.257812 68.085938 12.597656 68.65625 12.027344 C 69.226562 11.457031 69.882812 11.015625 70.628906 10.707031 C 71.375 10.398438 72.152344 10.242188 72.960938 10.242188 L 117.785156 10.242188 C 118.589844 10.242188 119.367188 10.398438 120.113281 10.707031 C 120.859375 11.015625 121.519531 11.457031 122.089844 12.027344 C 122.660156 12.597656 123.097656 13.257812 123.410156 14.003906 C 123.71875 14.75 123.871094 15.523438 123.871094 16.332031 L 123.871094 61.15625 C 123.871094 61.964844 123.71875 62.738281 123.410156 63.484375 C 123.097656 64.230469 122.660156 64.890625 122.089844 65.460938 C 121.519531 66.03125 120.859375 66.472656 120.113281 66.78125 C 119.367188 67.089844 118.589844 67.242188 117.785156 67.242188 L 72.960938 67.242188 C 72.152344 67.242188 71.375 67.089844 70.628906 66.78125 C 69.882812 66.472656 69.226562 66.03125 68.65625 65.460938 C 68.085938 64.890625 67.644531 64.230469 67.335938 63.484375 C 67.027344 62.738281 66.871094 61.964844 66.871094 61.15625 Z M 66.871094 61.15625 " clip-rule="nonzero"/></clipPath><clipPath id="dff638cb6b"><path d="M 74 40 L 89 40 L 89 60 L 74 60 Z M 74 40 " clip-rule="nonzero"/></clipPath><clipPath id="a320274de4"><path d="M 66.871094 61.15625 L 66.871094 16.332031 C 66.871094 15.523438 67.027344 14.75 67.335938 14.003906 C 67.644531 13.257812 68.085938 12.597656 68.65625 12.027344 C 69.226562 11.457031 69.882812 11.015625 70.628906 10.707031 C 71.375 10.398438 72.152344 10.242188 72.960938 10.242188 L 117.785156 10.242188 C 118.589844 10.242188 119.367188 10.398438 120.113281 10.707031 C 120.859375 11.015625 121.519531 11.457031 122.089844 12.027344 C 122.660156 12.597656 123.097656 13.257812 123.410156 14.003906 C 123.71875 14.75 123.871094 15.523438 123.871094 16.332031 L 123.871094 61.15625 C 123.871094 61.964844 123.71875 62.738281 123.410156 63.484375 C 123.097656 64.230469 122.660156 64.890625 122.089844 65.460938 C 121.519531 66.03125 120.859375 66.472656 120.113281 66.78125 C 119.367188 67.089844 118.589844 67.242188 117.785156 67.242188 L 72.960938 67.242188 C 72.152344 67.242188 71.375 67.089844 70.628906 66.78125 C 69.882812 66.472656 69.226562 66.03125 68.65625 65.460938 C 68.085938 64.890625 67.644531 64.230469 67.335938 63.484375 C 67.027344 62.738281 66.871094 61.964844 66.871094 61.15625 Z M 66.871094 61.15625 " clip-rule="nonzero"/></clipPath><clipPath id="3ba7a8e502"><path d="M 74 17 L 89 17 L 89 37 L 74 37 Z M 74 17 " clip-rule="nonzero"/></clipPath><clipPath id="9060b1eaf8"><path d="M 66.871094 61.15625 L 66.871094 16.332031 C 66.871094 15.523438 67.027344 14.75 67.335938 14.003906 C 67.644531 13.257812 68.085938 12.597656 68.65625 12.027344 C 69.226562 11.457031 69.882812 11.015625 70.628906 10.707031 C 71.375 10.398438 72.152344 10.242188 72.960938 10.242188 L 117.785156 10.242188 C 118.589844 10.242188 119.367188 10.398438 120.113281 10.707031 C 120.859375 11.015625 121.519531 11.457031 122.089844 12.027344 C 122.660156 12.597656 123.097656 13.257812 123.410156 14.003906 C 123.71875 14.75 123.871094 15.523438 123.871094 16.332031 L 123.871094 61.15625 C 123.871094 61.964844 123.71875 62.738281 123.410156 63.484375 C 123.097656 64.230469 122.660156 64.890625 122.089844 65.460938 C 121.519531 66.03125 120.859375 66.472656 120.113281 66.78125 C 119.367188 67.089844 118.589844 67.242188 117.785156 67.242188 L 72.960938 67.242188 C 72.152344 67.242188 71.375 67.089844 70.628906 66.78125 C 69.882812 66.472656 69.226562 66.03125 68.65625 65.460938 C 68.085938 64.890625 67.644531 64.230469 67.335938 63.484375 C 67.027344 62.738281 66.871094 61.964844 66.871094 61.15625 Z M 66.871094 61.15625 " clip-rule="nonzero"/></clipPath><clipPath id="41856734ed"><path d="M 110 14 L 120 14 L 120 26 L 110 26 Z M 110 14 " clip-rule="nonzero"/></clipPath><clipPath id="b8bc7bd93b"><path d="M 66.871094 61.15625 L 66.871094 16.332031 C 66.871094 15.523438 67.027344 14.75 67.335938 14.003906 C 67.644531 13.257812 68.085938 12.597656 68.65625 12.027344 C 69.226562 11.457031 69.882812 11.015625 70.628906 10.707031 C 71.375 10.398438 72.152344 10.242188 72.960938 10.242188 L 117.785156 10.242188 C 118.589844 10.242188 119.367188 10.398438 120.113281 10.707031 C 120.859375 11.015625 121.519531 11.457031 122.089844 12.027344 C 122.660156 12.597656 123.097656 13.257812 123.410156 14.003906 C 123.71875 14.75 123.871094 15.523438 123.871094 16.332031 L 123.871094 61.15625 C 123.871094 61.964844 123.71875 62.738281 123.410156 63.484375 C 123.097656 64.230469 122.660156 64.890625 122.089844 65.460938 C 121.519531 66.03125 120.859375 66.472656 120.113281 66.78125 C 119.367188 67.089844 118.589844 67.242188 117.785156 67.242188 L 72.960938 67.242188 C 72.152344 67.242188 71.375 67.089844 70.628906 66.78125 C 69.882812 66.472656 69.226562 66.03125 68.65625 65.460938 C 68.085938 64.890625 67.644531 64.230469 67.335938 63.484375 C 67.027344 62.738281 66.871094 61.964844 66.871094 61.15625 Z M 66.871094 61.15625 " clip-rule="nonzero"/></clipPath></defs><g clip-path="url(#5a19fc9b41)"><g clip-path="url(#51110f6389)"><path fill="#006aea" d="M 123.871094 10.242188 L 66.871094 10.242188 L 66.871094 67.242188 L 123.871094 67.242188 Z M 123.871094 10.242188 " fill-opacity="1" fill-rule="nonzero"/></g></g><g clip-path="url(#f73d6d99b2)"><g clip-path="url(#a087879445)"><path fill="#ffffff" d="M 108.007812 33.476562 L 108.007812 36.820312 L 95.039062 36.820312 C 94.105469 36.820312 93.289062 36.476562 92.617188 35.804688 C 91.945312 35.132812 91.601562 34.316406 91.601562 33.382812 L 91.601562 21.367188 C 91.601562 20.402344 91.9375 19.582031 92.597656 18.921875 C 93.257812 18.265625 94.078125 17.929688 95.039062 17.929688 L 108.007812 17.929688 L 108.007812 21.273438 L 94.960938 21.273438 L 94.960938 33.476562 Z M 108.007812 33.476562 " fill-opacity="1" fill-rule="nonzero"/></g></g><g clip-path="url(#f5e1aec6d8)"><g clip-path="url(#50fef5e97d)"><path fill="#ffffff" d="M 108.007812 56.382812 L 108.007812 59.726562 L 95.042969 59.726562 C 94.105469 59.726562 93.289062 59.382812 92.617188 58.710938 C 91.945312 58.039062 91.605469 57.222656 91.605469 56.289062 L 91.605469 44.273438 C 91.605469 43.792969 91.6875 43.347656 91.855469 42.9375 C 92.019531 42.53125 92.269531 42.160156 92.597656 41.828125 C 93.257812 41.171875 94.078125 40.835938 95.042969 40.835938 L 108.007812 40.835938 L 108.007812 44.179688 L 94.960938 44.179688 L 94.960938 48.597656 L 108.007812 48.597656 L 108.007812 51.9375 L 94.960938 51.9375 L 94.960938 56.382812 Z M 108.007812 56.382812 " fill-opacity="1" fill-rule="nonzero"/></g></g><g clip-path="url(#dff638cb6b)"><g clip-path="url(#a320274de4)"><path fill="#ffffff" d="M 88.554688 55.828125 L 88.554688 59.726562 L 78.296875 59.726562 C 77.363281 59.726562 76.546875 59.382812 75.875 58.710938 C 75.203125 58.039062 74.863281 57.222656 74.863281 56.289062 L 74.863281 40.835938 L 78.761719 40.835938 L 78.761719 55.828125 Z M 88.554688 55.828125 " fill-opacity="1" fill-rule="nonzero"/></g></g><g clip-path="url(#3ba7a8e502)"><g clip-path="url(#9060b1eaf8)"><path fill="#ffffff" d="M 88.554688 33.476562 L 88.554688 36.820312 L 74.863281 36.820312 L 74.863281 33.476562 L 80.03125 33.476562 L 80.03125 21.273438 L 74.863281 21.273438 L 74.863281 17.929688 L 88.554688 17.929688 L 88.554688 21.273438 L 83.386719 21.273438 L 83.386719 33.476562 Z M 88.554688 33.476562 " fill-opacity="1" fill-rule="nonzero"/></g></g><g clip-path="url(#41856734ed)"><g clip-path="url(#b8bc7bd93b)"><path fill="#ffffff" d="M 119.609375 23.019531 L 119.609375 25.160156 L 110.476562 25.160156 L 110.476562 21.027344 C 110.476562 20.460938 110.726562 19.972656 111.210938 19.578125 C 111.664062 19.210938 112.179688 19.023438 112.742188 19.023438 L 117.441406 19.023438 L 117.441406 16.875 L 111.199219 16.875 L 111.199219 14.734375 L 117.59375 14.734375 C 118.15625 14.734375 118.636719 14.929688 119.027344 15.316406 C 119.414062 15.703125 119.609375 16.183594 119.609375 16.746094 L 119.609375 19.152344 C 119.609375 19.707031 119.410156 20.183594 119.019531 20.574219 C 118.628906 20.964844 118.148438 21.164062 117.59375 21.164062 L 112.648438 21.164062 L 112.648438 23.019531 Z M 119.609375 23.019531 " fill-opacity="1" fill-rule="nonzero"/></g></g><g fill="#ffffff" fill-opacity="1"><g transform="translate(133.975658, 53.624994)"><g><path d="M 28.1875 -15.890625 C 28.1875 -13.585938 27.765625 -11.46875 26.921875 -9.53125 C 26.054688 -7.570312 24.890625 -5.890625 23.421875 -4.484375 C 21.953125 -3.085938 20.222656 -2 18.234375 -1.21875 C 16.234375 -0.40625 14.097656 0 11.828125 0 L 3.5 0 L 3.5 -31.796875 L 11.828125 -31.796875 C 14.097656 -31.796875 16.234375 -31.40625 18.234375 -30.625 C 20.222656 -29.8125 21.953125 -28.703125 23.421875 -27.296875 C 24.890625 -25.898438 26.054688 -24.234375 26.921875 -22.296875 C 27.765625 -20.335938 28.1875 -18.203125 28.1875 -15.890625 Z M 25.015625 -15.890625 C 25.015625 -19.503906 23.734375 -22.53125 21.171875 -24.96875 C 18.679688 -27.332031 15.597656 -28.515625 11.921875 -28.515625 L 6.78125 -28.515625 L 6.78125 -3.265625 L 11.921875 -3.265625 C 15.597656 -3.265625 18.679688 -4.453125 21.171875 -6.828125 C 23.734375 -9.253906 25.015625 -12.273438 25.015625 -15.890625 Z M 25.015625 -15.890625 "/></g></g></g><g fill="#ffffff" fill-opacity="1"><g transform="translate(164.267114, 53.624994)"><g><path d="M 20.34375 -10.375 C 20.34375 -12.4375 19.609375 -14.195312 18.140625 -15.65625 C 16.671875 -17.125 14.910156 -17.859375 12.859375 -17.859375 C 10.796875 -17.859375 9.035156 -17.125 7.578125 -15.65625 C 6.109375 -14.195312 5.375 -12.4375 5.375 -10.375 C 5.375 -8.351562 6.109375 -6.609375 7.578125 -5.140625 C 9.035156 -3.671875 10.796875 -2.9375 12.859375 -2.9375 C 14.910156 -2.9375 16.671875 -3.671875 18.140625 -5.140625 C 19.609375 -6.609375 20.34375 -8.351562 20.34375 -10.375 Z M 23.609375 -10.375 C 23.609375 -7.382812 22.5625 -4.863281 20.46875 -2.8125 C 18.320312 -0.71875 15.785156 0.328125 12.859375 0.328125 C 9.929688 0.328125 7.40625 -0.71875 5.28125 -2.8125 C 3.164062 -4.863281 2.109375 -7.382812 2.109375 -10.375 C 2.109375 -13.332031 3.164062 -15.875 5.28125 -18 C 7.375 -20.082031 9.898438 -21.125 12.859375 -21.125 C 15.816406 -21.125 18.351562 -20.082031 20.46875 -18 C 22.5625 -15.875 23.609375 -13.332031 23.609375 -10.375 Z M 23.609375 -10.375 "/></g></g></g><g fill="#ffffff" fill-opacity="1"><g transform="translate(189.977455, 53.624994)"><g><path d="M 22.71875 -13.1875 L 19.171875 -13.1875 C 18.609375 -14.488281 17.734375 -15.546875 16.546875 -16.359375 C 15.359375 -17.171875 14.160156 -17.578125 12.953125 -17.578125 C 11.734375 -17.578125 10.6875 -17.390625 9.8125 -17.015625 C 8.945312 -16.609375 8.203125 -16.078125 7.578125 -15.421875 C 6.171875 -13.960938 5.46875 -12.25 5.46875 -10.28125 C 5.46875 -8.289062 6.171875 -6.578125 7.578125 -5.140625 C 8.941406 -3.671875 10.625 -2.9375 12.625 -2.9375 C 13.9375 -2.9375 15.148438 -3.28125 16.265625 -3.96875 C 17.359375 -4.65625 18.21875 -5.578125 18.84375 -6.734375 L 22.53125 -6.734375 C 21.375 -3.429688 19.144531 -1.21875 15.84375 -0.09375 C 14.820312 0.28125 13.65625 0.46875 12.34375 0.46875 C 11.03125 0.46875 9.738281 0.171875 8.46875 -0.421875 C 7.1875 -0.984375 6.078125 -1.765625 5.140625 -2.765625 C 3.117188 -4.878906 2.109375 -7.382812 2.109375 -10.28125 C 2.109375 -13.207031 3.117188 -15.71875 5.140625 -17.8125 C 7.203125 -19.925781 9.695312 -20.984375 12.625 -20.984375 C 14.988281 -20.984375 17.125 -20.253906 19.03125 -18.796875 C 20.832031 -17.390625 22.0625 -15.519531 22.71875 -13.1875 Z M 22.71875 -13.1875 "/></g></g></g><g fill="#ffffff" fill-opacity="1"><g transform="translate(214.332162, 53.624994)"><g><path d="M 6.5 -2.9375 C 7.3125 -2.382812 8.367188 -2.109375 9.671875 -2.109375 C 12.671875 -2.109375 14.171875 -3.226562 14.171875 -5.46875 C 14.171875 -6.78125 13.09375 -7.78125 10.9375 -8.46875 C 10.03125 -8.769531 9.066406 -9.046875 8.046875 -9.296875 C 6.984375 -9.546875 6 -9.875 5.09375 -10.28125 C 4.03125 -10.78125 3.238281 -11.40625 2.71875 -12.15625 C 2.1875 -12.90625 1.921875 -13.789062 1.921875 -14.8125 C 1.921875 -16.875 2.632812 -18.421875 4.0625 -19.453125 C 5.5 -20.503906 7.210938 -21.03125 9.203125 -21.03125 C 11.203125 -21.03125 12.859375 -20.628906 14.171875 -19.828125 C 15.472656 -19.015625 16.359375 -17.5625 16.828125 -15.46875 L 13.328125 -15.46875 C 12.953125 -16.625 12.40625 -17.390625 11.6875 -17.765625 C 11 -18.140625 10.140625 -18.328125 9.109375 -18.328125 C 8.085938 -18.328125 7.21875 -18.109375 6.5 -17.671875 C 5.75 -17.203125 5.375 -16.515625 5.375 -15.609375 C 5.375 -14.679688 5.6875 -14 6.3125 -13.5625 C 6.90625 -13.15625 7.65625 -12.796875 8.5625 -12.484375 C 9.457031 -12.203125 10.4375 -11.953125 11.5 -11.734375 C 12.53125 -11.484375 13.515625 -11.140625 14.453125 -10.703125 C 16.566406 -9.703125 17.625 -8.097656 17.625 -5.890625 C 17.625 -3.679688 16.828125 -2.046875 15.234375 -0.984375 C 14.429688 -0.453125 13.546875 -0.046875 12.578125 0.234375 C 11.640625 0.484375 10.609375 0.609375 9.484375 0.609375 C 4.722656 0.609375 1.984375 -1.507812 1.265625 -5.75 L 4.71875 -5.75 C 5.0625 -4.40625 5.65625 -3.46875 6.5 -2.9375 Z M 6.5 -2.9375 "/></g></g></g></svg>