<svg xmlns="http://www.w3.org/2000/svg" xmlns:xlink="http://www.w3.org/1999/xlink" width="500" zoomAndPan="magnify" viewBox="0 0 375 374.999991" height="500" preserveAspectRatio="xMidYMid meet" version="1.2"><defs><clipPath id="13f3fee416"><path d="M 5 96 L 370 96 L 370 278.933594 L 5 278.933594 Z M 5 96 "/></clipPath></defs><g id="2e3a9d18d5"><g clip-rule="nonzero" clip-path="url(#13f3fee416)"><path style=" stroke:none;fill-rule:nonzero;fill:#ffffff;fill-opacity:1;" d="M 96.683594 278.925781 C 97.578125 278.925781 98.464844 278.859375 99.351562 278.730469 C 100.234375 278.597656 101.105469 278.402344 101.960938 278.144531 C 102.816406 277.882812 103.648438 277.5625 104.457031 277.179688 C 105.265625 276.796875 106.042969 276.359375 106.789062 275.859375 C 107.53125 275.363281 108.234375 274.816406 108.898438 274.214844 C 109.558594 273.613281 110.175781 272.96875 110.742188 272.277344 C 111.308594 271.585938 111.824219 270.855469 112.285156 270.089844 C 112.742188 269.320312 113.144531 268.523438 113.488281 267.699219 C 113.828125 266.871094 114.109375 266.023438 114.328125 265.15625 C 114.542969 264.289062 114.695312 263.410156 114.785156 262.519531 C 114.871094 261.628906 114.894531 260.738281 114.851562 259.84375 C 114.804688 258.953125 114.695312 258.066406 114.523438 257.1875 C 114.347656 256.3125 114.109375 255.453125 113.808594 254.609375 C 113.507812 253.765625 113.148438 252.953125 112.726562 252.164062 C 112.304688 251.375 111.828125 250.621094 111.292969 249.902344 C 110.761719 249.183594 110.179688 248.507812 109.546875 247.875 L 67.835938 206.164062 L 351.34375 206.164062 C 351.941406 206.164062 352.535156 206.136719 353.128906 206.078125 C 353.722656 206.019531 354.308594 205.929688 354.894531 205.816406 C 355.480469 205.699219 356.054688 205.554688 356.625 205.382812 C 357.195312 205.207031 357.757812 205.007812 358.308594 204.78125 C 358.855469 204.550781 359.394531 204.296875 359.921875 204.015625 C 360.445312 203.734375 360.957031 203.429688 361.453125 203.097656 C 361.945312 202.769531 362.425781 202.414062 362.886719 202.035156 C 363.347656 201.65625 363.785156 201.257812 364.207031 200.835938 C 364.628906 200.414062 365.027344 199.976562 365.40625 199.515625 C 365.785156 199.054688 366.140625 198.574219 366.46875 198.082031 C 366.800781 197.585938 367.105469 197.074219 367.386719 196.550781 C 367.667969 196.023438 367.921875 195.484375 368.152344 194.9375 C 368.378906 194.386719 368.578125 193.824219 368.753906 193.253906 C 368.925781 192.683594 369.070312 192.109375 369.1875 191.523438 C 369.300781 190.9375 369.390625 190.351562 369.449219 189.757812 C 369.507812 189.164062 369.535156 188.570312 369.535156 187.972656 C 369.535156 187.378906 369.507812 186.785156 369.449219 186.191406 C 369.390625 185.597656 369.300781 185.011719 369.1875 184.425781 C 369.070312 183.839844 368.925781 183.265625 368.753906 182.695312 C 368.578125 182.125 368.378906 181.5625 368.152344 181.011719 C 367.921875 180.464844 367.667969 179.925781 367.386719 179.398438 C 367.105469 178.875 366.800781 178.363281 366.46875 177.867188 C 366.140625 177.375 365.785156 176.894531 365.40625 176.433594 C 365.027344 175.972656 364.628906 175.535156 364.207031 175.113281 C 363.785156 174.691406 363.347656 174.292969 362.886719 173.914062 C 362.425781 173.535156 361.945312 173.179688 361.453125 172.851562 C 360.957031 172.519531 360.445312 172.214844 359.921875 171.933594 C 359.394531 171.652344 358.855469 171.398438 358.308594 171.167969 C 357.757812 170.941406 357.195312 170.742188 356.625 170.566406 C 356.054688 170.394531 355.480469 170.25 354.894531 170.132812 C 354.308594 170.019531 353.722656 169.929688 353.128906 169.871094 C 352.535156 169.8125 351.941406 169.785156 351.34375 169.785156 L 67.835938 169.785156 L 109.546875 128.074219 C 109.96875 127.652344 110.371094 127.214844 110.753906 126.753906 C 111.132812 126.292969 111.492188 125.8125 111.824219 125.320312 C 112.160156 124.824219 112.46875 124.3125 112.75 123.785156 C 113.035156 123.261719 113.292969 122.722656 113.523438 122.171875 C 113.753906 121.621094 113.957031 121.058594 114.128906 120.488281 C 114.304688 119.917969 114.453125 119.335938 114.570312 118.753906 C 114.6875 118.167969 114.777344 117.578125 114.835938 116.980469 C 114.898438 116.386719 114.925781 115.792969 114.929688 115.195312 C 114.929688 114.597656 114.902344 114 114.84375 113.40625 C 114.785156 112.8125 114.699219 112.222656 114.585938 111.636719 C 114.46875 111.050781 114.324219 110.46875 114.152344 109.898438 C 113.980469 109.324219 113.777344 108.765625 113.550781 108.210938 C 113.324219 107.660156 113.066406 107.121094 112.785156 106.59375 C 112.503906 106.066406 112.199219 105.554688 111.867188 105.058594 C 111.535156 104.558594 111.179688 104.082031 110.800781 103.617188 C 110.421875 103.15625 110.023438 102.714844 109.597656 102.292969 C 109.175781 101.871094 108.734375 101.46875 108.273438 101.089844 C 107.808594 100.710938 107.332031 100.355469 106.832031 100.023438 C 106.335938 99.695312 105.824219 99.386719 105.296875 99.105469 C 104.769531 98.824219 104.230469 98.570312 103.679688 98.34375 C 103.125 98.113281 102.5625 97.914062 101.992188 97.742188 C 101.421875 97.570312 100.839844 97.425781 100.253906 97.308594 C 99.667969 97.195312 99.078125 97.109375 98.484375 97.050781 C 97.890625 96.992188 97.292969 96.964844 96.695312 96.964844 C 96.097656 96.96875 95.503906 97 94.90625 97.058594 C 94.3125 97.117188 93.722656 97.207031 93.136719 97.328125 C 92.550781 97.445312 91.972656 97.589844 91.402344 97.765625 C 90.832031 97.941406 90.269531 98.144531 89.71875 98.375 C 89.167969 98.605469 88.628906 98.863281 88.105469 99.144531 C 87.578125 99.429688 87.066406 99.738281 86.570312 100.074219 C 86.078125 100.40625 85.597656 100.765625 85.140625 101.144531 C 84.679688 101.527344 84.238281 101.929688 83.816406 102.351562 L 11.054688 175.113281 C 10.636719 175.535156 10.234375 175.976562 9.855469 176.4375 C 9.476562 176.894531 9.121094 177.375 8.792969 177.867188 C 8.460938 178.363281 8.152344 178.875 7.871094 179.398438 C 7.589844 179.925781 7.335938 180.460938 7.109375 181.011719 C 6.878906 181.5625 6.679688 182.125 6.507812 182.695312 C 6.332031 183.265625 6.1875 183.839844 6.070312 184.425781 C 5.957031 185.011719 5.867188 185.597656 5.808594 186.191406 C 5.75 186.785156 5.722656 187.378906 5.722656 187.972656 C 5.722656 188.570312 5.75 189.164062 5.808594 189.757812 C 5.867188 190.351562 5.957031 190.9375 6.070312 191.523438 C 6.1875 192.109375 6.332031 192.683594 6.507812 193.253906 C 6.679688 193.824219 6.878906 194.386719 7.109375 194.9375 C 7.335938 195.488281 7.589844 196.023438 7.871094 196.550781 C 8.152344 197.074219 8.460938 197.585938 8.792969 198.082031 C 9.121094 198.574219 9.476562 199.054688 9.855469 199.511719 C 10.234375 199.972656 10.636719 200.414062 11.054688 200.835938 L 83.816406 273.597656 C 85.523438 275.304688 87.488281 276.621094 89.71875 277.546875 C 91.945312 278.46875 94.269531 278.929688 96.683594 278.925781 Z M 96.683594 278.925781 "/></g></g></svg>