<svg xmlns="http://www.w3.org/2000/svg" xmlns:xlink="http://www.w3.org/1999/xlink" width="500" zoomAndPan="magnify" viewBox="0 0 375 374.999991" height="500" preserveAspectRatio="xMidYMid meet" version="1.2"><defs><clipPath id="ba1f343170"><path d="M 5 96 L 370 96 L 370 278.933594 L 5 278.933594 Z M 5 96 "/></clipPath></defs><g id="8f800eb395"><g clip-rule="nonzero" clip-path="url(#ba1f343170)"><path style=" stroke:none;fill-rule:nonzero;fill:#ffffff;fill-opacity:1;" d="M 278.316406 278.925781 C 277.421875 278.925781 276.53125 278.859375 275.644531 278.730469 C 274.761719 278.597656 273.890625 278.402344 273.035156 278.144531 C 272.179688 277.882812 271.347656 277.5625 270.539062 277.179688 C 269.730469 276.796875 268.953125 276.359375 268.210938 275.859375 C 267.464844 275.363281 266.761719 274.816406 266.101562 274.214844 C 265.4375 273.613281 264.820312 272.96875 264.253906 272.277344 C 263.6875 271.585938 263.171875 270.855469 262.714844 270.089844 C 262.253906 269.320312 261.851562 268.523438 261.511719 267.699219 C 261.167969 266.871094 260.886719 266.023438 260.671875 265.15625 C 260.453125 264.289062 260.300781 263.410156 260.210938 262.519531 C 260.125 261.628906 260.101562 260.738281 260.148438 259.84375 C 260.191406 258.953125 260.300781 258.066406 260.472656 257.1875 C 260.648438 256.3125 260.886719 255.453125 261.1875 254.609375 C 261.488281 253.765625 261.851562 252.953125 262.273438 252.164062 C 262.691406 251.375 263.171875 250.621094 263.703125 249.902344 C 264.234375 249.183594 264.820312 248.507812 265.449219 247.875 L 307.160156 206.164062 L 23.652344 206.164062 C 23.054688 206.164062 22.460938 206.136719 21.867188 206.078125 C 21.273438 206.019531 20.6875 205.929688 20.101562 205.816406 C 19.519531 205.699219 18.941406 205.554688 18.371094 205.382812 C 17.800781 205.207031 17.242188 205.007812 16.691406 204.78125 C 16.140625 204.550781 15.601562 204.296875 15.078125 204.015625 C 14.550781 203.734375 14.039062 203.429688 13.546875 203.097656 C 13.050781 202.769531 12.570312 202.414062 12.113281 202.035156 C 11.652344 201.65625 11.210938 201.257812 10.789062 200.835938 C 10.367188 200.414062 9.96875 199.976562 9.589844 199.515625 C 9.210938 199.054688 8.859375 198.574219 8.527344 198.082031 C 8.195312 197.585938 7.890625 197.074219 7.609375 196.550781 C 7.328125 196.023438 7.074219 195.484375 6.84375 194.9375 C 6.617188 194.386719 6.417969 193.824219 6.246094 193.253906 C 6.070312 192.683594 5.925781 192.109375 5.808594 191.523438 C 5.695312 190.9375 5.605469 190.351562 5.546875 189.757812 C 5.488281 189.164062 5.460938 188.570312 5.460938 187.972656 C 5.460938 187.378906 5.488281 186.785156 5.546875 186.191406 C 5.605469 185.597656 5.695312 185.011719 5.808594 184.425781 C 5.925781 183.839844 6.070312 183.265625 6.246094 182.695312 C 6.417969 182.125 6.617188 181.5625 6.84375 181.011719 C 7.074219 180.464844 7.328125 179.925781 7.609375 179.398438 C 7.890625 178.875 8.195312 178.363281 8.527344 177.867188 C 8.859375 177.375 9.210938 176.894531 9.589844 176.433594 C 9.96875 175.972656 10.367188 175.535156 10.789062 175.113281 C 11.210938 174.691406 11.652344 174.292969 12.113281 173.914062 C 12.570312 173.535156 13.050781 173.179688 13.546875 172.851562 C 14.039062 172.519531 14.550781 172.214844 15.078125 171.933594 C 15.601562 171.652344 16.140625 171.398438 16.691406 171.167969 C 17.242188 170.941406 17.800781 170.742188 18.371094 170.566406 C 18.941406 170.394531 19.519531 170.25 20.101562 170.132812 C 20.6875 170.019531 21.273438 169.929688 21.867188 169.871094 C 22.460938 169.8125 23.054688 169.785156 23.652344 169.785156 L 307.160156 169.785156 L 265.449219 128.074219 C 265.027344 127.652344 264.625 127.214844 264.242188 126.753906 C 263.863281 126.292969 263.503906 125.8125 263.171875 125.320312 C 262.835938 124.824219 262.527344 124.3125 262.246094 123.785156 C 261.960938 123.261719 261.707031 122.722656 261.476562 122.171875 C 261.246094 121.621094 261.042969 121.058594 260.867188 120.488281 C 260.691406 119.917969 260.546875 119.335938 260.425781 118.753906 C 260.308594 118.167969 260.21875 117.578125 260.160156 116.980469 C 260.101562 116.386719 260.070312 115.792969 260.066406 115.195312 C 260.066406 114.597656 260.09375 114 260.152344 113.40625 C 260.210938 112.8125 260.296875 112.222656 260.414062 111.636719 C 260.527344 111.050781 260.671875 110.46875 260.84375 109.898438 C 261.015625 109.324219 261.21875 108.765625 261.445312 108.210938 C 261.675781 107.660156 261.929688 107.121094 262.210938 106.59375 C 262.492188 106.066406 262.796875 105.554688 263.128906 105.058594 C 263.460938 104.558594 263.816406 104.082031 264.195312 103.617188 C 264.574219 103.15625 264.976562 102.714844 265.398438 102.292969 C 265.820312 101.871094 266.261719 101.46875 266.722656 101.089844 C 267.1875 100.710938 267.664062 100.355469 268.164062 100.023438 C 268.660156 99.695312 269.171875 99.386719 269.699219 99.105469 C 270.226562 98.824219 270.765625 98.570312 271.316406 98.34375 C 271.871094 98.113281 272.433594 97.914062 273.003906 97.742188 C 273.578125 97.570312 274.15625 97.425781 274.742188 97.308594 C 275.328125 97.195312 275.917969 97.109375 276.511719 97.050781 C 277.109375 96.992188 277.703125 96.964844 278.300781 96.964844 C 278.898438 96.96875 279.496094 97 280.089844 97.058594 C 280.683594 97.117188 281.273438 97.207031 281.859375 97.328125 C 282.445312 97.445312 283.023438 97.589844 283.59375 97.765625 C 284.164062 97.941406 284.726562 98.144531 285.277344 98.375 C 285.828125 98.605469 286.367188 98.863281 286.894531 99.144531 C 287.417969 99.429688 287.929688 99.738281 288.425781 100.074219 C 288.921875 100.40625 289.398438 100.765625 289.859375 101.144531 C 290.316406 101.527344 290.757812 101.929688 291.179688 102.351562 L 363.941406 175.113281 C 364.363281 175.535156 364.761719 175.976562 365.140625 176.4375 C 365.519531 176.894531 365.875 177.375 366.207031 177.867188 C 366.535156 178.363281 366.84375 178.875 367.125 179.398438 C 367.40625 179.925781 367.660156 180.460938 367.886719 181.011719 C 368.117188 181.5625 368.316406 182.125 368.492188 182.695312 C 368.664062 183.265625 368.808594 183.839844 368.925781 184.425781 C 369.042969 185.011719 369.128906 185.597656 369.1875 186.191406 C 369.246094 186.785156 369.273438 187.378906 369.273438 187.972656 C 369.273438 188.570312 369.246094 189.164062 369.1875 189.757812 C 369.128906 190.351562 369.042969 190.9375 368.925781 191.523438 C 368.808594 192.109375 368.664062 192.683594 368.492188 193.253906 C 368.316406 193.824219 368.117188 194.386719 367.886719 194.9375 C 367.660156 195.488281 367.40625 196.023438 367.125 196.550781 C 366.84375 197.074219 366.535156 197.585938 366.207031 198.082031 C 365.875 198.574219 365.519531 199.054688 365.140625 199.511719 C 364.761719 199.972656 364.363281 200.414062 363.941406 200.835938 L 291.179688 273.597656 C 289.476562 275.304688 287.507812 276.621094 285.277344 277.546875 C 283.050781 278.46875 280.726562 278.929688 278.316406 278.925781 Z M 278.316406 278.925781 "/></g></g></svg>