<svg xmlns="http://www.w3.org/2000/svg" xmlns:xlink="http://www.w3.org/1999/xlink" width="500" zoomAndPan="magnify" viewBox="0 0 375 374.999991" height="500" preserveAspectRatio="xMidYMid meet" version="1.2"><defs><clipPath id="9193136bbd"><path d="M 38.386719 20 L 336.886719 20 L 336.886719 355 L 38.386719 355 Z M 38.386719 20 "/></clipPath><clipPath id="840f2400c5"><path d="M 188 103 L 336.886719 103 L 336.886719 271 L 188 271 Z M 188 103 "/></clipPath></defs><g id="634a22aaae"><g clip-rule="nonzero" clip-path="url(#9193136bbd)"><path style=" stroke:none;fill-rule:nonzero;fill:#5c8dbc;fill-opacity:1;" d="M 336.421875 118.707031 C 336.421875 113.089844 335.210938 108.125 332.777344 103.863281 C 330.390625 99.671875 326.816406 96.160156 322.019531 93.382812 C 282.390625 70.558594 242.738281 47.804688 203.125 24.957031 C 192.445312 18.796875 182.09375 19.019531 171.496094 25.269531 C 155.730469 34.558594 76.765625 79.753906 53.230469 93.371094 C 43.546875 98.972656 38.832031 107.550781 38.828125 118.699219 C 38.816406 164.605469 38.828125 210.5 38.816406 256.410156 C 38.816406 261.898438 39.96875 266.761719 42.292969 270.960938 C 44.683594 275.277344 48.3125 278.898438 53.222656 281.734375 C 76.753906 295.347656 155.71875 340.535156 171.488281 349.828125 C 182.097656 356.089844 192.449219 356.308594 203.128906 350.144531 C 242.746094 327.292969 282.40625 304.539062 322.035156 281.722656 C 326.949219 278.886719 330.570312 275.265625 332.96875 270.953125 C 335.285156 266.761719 336.4375 261.886719 336.4375 256.386719 C 336.4375 256.386719 336.4375 164.617188 336.429688 118.710938 "/></g><path style=" stroke:none;fill-rule:nonzero;fill:#1a4674;fill-opacity:1;" d="M 188.078125 187.105469 L 42.296875 270.960938 C 44.683594 275.277344 48.3125 278.894531 53.222656 281.734375 C 76.753906 295.347656 155.71875 340.53125 171.488281 349.828125 C 182.097656 356.085938 192.449219 356.308594 203.128906 350.140625 C 242.746094 327.292969 282.40625 304.539062 322.035156 281.722656 C 326.949219 278.882812 330.570312 275.265625 332.96875 270.949219 L 188.082031 187.105469 "/><path style=" stroke:none;fill-rule:nonzero;fill:#1a4674;fill-opacity:1;" d="M 144.902344 211.941406 C 153.382812 226.742188 169.332031 236.722656 187.625 236.722656 C 206.035156 236.722656 222.070312 226.613281 230.511719 211.664062 L 188.078125 187.105469 L 144.902344 211.941406 "/><g clip-rule="nonzero" clip-path="url(#840f2400c5)"><path style=" stroke:none;fill-rule:nonzero;fill:#1b598e;fill-opacity:1;" d="M 336.421875 118.707031 C 336.421875 113.089844 335.210938 108.125 332.777344 103.863281 L 188.078125 187.105469 L 332.964844 270.949219 C 335.28125 266.761719 336.433594 261.886719 336.433594 256.382812 C 336.433594 256.382812 336.433594 164.617188 336.421875 118.707031 "/></g><path style=" stroke:none;fill-rule:nonzero;fill:#ffffff;fill-opacity:1;" d="M 328.457031 193.097656 L 317.140625 193.097656 L 317.140625 204.402344 L 305.808594 204.402344 L 305.808594 193.097656 L 294.488281 193.097656 L 294.488281 181.789062 L 305.808594 181.789062 L 305.808594 170.480469 L 317.140625 170.480469 L 317.140625 181.789062 L 328.457031 181.789062 L 328.457031 193.097656 "/><path style=" stroke:none;fill-rule:nonzero;fill:#ffffff;fill-opacity:1;" d="M 287.140625 193.097656 L 275.824219 193.097656 L 275.824219 204.402344 L 264.503906 204.402344 L 264.503906 193.097656 L 253.183594 193.097656 L 253.183594 181.789062 L 264.503906 181.789062 L 264.503906 170.480469 L 275.824219 170.480469 L 275.824219 181.789062 L 287.140625 181.789062 L 287.140625 193.097656 "/><path style=" stroke:none;fill-rule:nonzero;fill:#ffffff;fill-opacity:1;" d="M 230.511719 211.664062 C 222.070312 226.613281 206.035156 236.722656 187.625 236.722656 C 169.332031 236.722656 153.382812 226.742188 144.902344 211.941406 C 140.78125 204.753906 138.410156 196.433594 138.410156 187.546875 C 138.410156 160.394531 160.445312 138.382812 187.625 138.382812 C 205.800781 138.382812 221.664062 148.234375 230.1875 162.882812 L 273.203125 138.136719 C 256.109375 108.644531 224.191406 88.808594 187.625 88.808594 C 133.039062 88.808594 88.789062 133.015625 88.789062 187.546875 C 88.789062 205.441406 93.554688 222.214844 101.878906 236.6875 C 118.933594 266.332031 150.949219 286.296875 187.625 286.296875 C 224.375 286.296875 256.433594 266.25 273.460938 236.523438 L 230.511719 211.664062 "/></g></svg>