<svg xmlns="http://www.w3.org/2000/svg" xmlns:xlink="http://www.w3.org/1999/xlink" width="500" zoomAndPan="magnify" viewBox="0 0 375 374.999991" height="500" preserveAspectRatio="xMidYMid meet" version="1.2"><defs><clipPath id="be19c9de7e"><path d="M 55.46875 55.46875 L 319.46875 55.46875 L 319.46875 319.46875 L 55.46875 319.46875 Z M 55.46875 55.46875 "/></clipPath><clipPath id="cf2c7de776"><path d="M 200.210938 175.621094 L 362.210938 175.621094 L 362.210938 337.621094 L 200.210938 337.621094 Z M 200.210938 175.621094 "/></clipPath><clipPath id="a96a3b5632"><path d="M 210.675781 186.085938 L 351.675781 186.085938 L 351.675781 327.085938 L 210.675781 327.085938 Z M 210.675781 186.085938 "/></clipPath><clipPath id="de8de67713"><path d="M 247.507812 222.914062 L 314.796875 222.914062 L 314.796875 290.203125 L 247.507812 290.203125 Z M 247.507812 222.914062 "/></clipPath><clipPath id="e515ba658f"><path d="M 281.152344 222.914062 C 262.570312 222.914062 247.507812 237.976562 247.507812 256.558594 C 247.507812 275.140625 262.570312 290.203125 281.152344 290.203125 C 299.734375 290.203125 314.796875 275.140625 314.796875 256.558594 C 314.796875 237.976562 299.734375 222.914062 281.152344 222.914062 Z M 281.152344 222.914062 "/></clipPath></defs><g id="acf87e69d6"><path style=" stroke:none;fill-rule:nonzero;fill:#8c52ff;fill-opacity:1;" d="M 244.863281 124.339844 L 130.078125 124.339844 C 126.910156 124.339844 124.339844 126.910156 124.339844 130.078125 L 124.339844 244.863281 C 124.339844 248.035156 126.910156 250.601562 130.078125 250.601562 L 244.863281 250.601562 C 248.035156 250.601562 250.601562 248.035156 250.601562 244.863281 L 250.601562 130.078125 C 250.601562 126.910156 248.035156 124.339844 244.863281 124.339844 Z M 239.121094 239.121094 L 135.816406 239.121094 L 135.816406 135.816406 L 239.121094 135.816406 Z M 239.121094 239.121094 "/><g clip-rule="nonzero" clip-path="url(#be19c9de7e)"><path style=" stroke:none;fill-rule:nonzero;fill:#8c52ff;fill-opacity:1;" d="M 313.730469 158.773438 C 316.90625 158.773438 319.46875 156.203125 319.46875 153.035156 C 319.46875 149.867188 316.90625 147.296875 313.730469 147.296875 L 285.035156 147.296875 L 285.035156 124.339844 L 313.730469 124.339844 C 316.90625 124.339844 319.46875 121.769531 319.46875 118.601562 C 319.46875 115.433594 316.90625 112.863281 313.730469 112.863281 L 285.035156 112.863281 L 285.035156 107.121094 C 285.035156 97.628906 277.308594 89.90625 267.816406 89.90625 L 262.078125 89.90625 L 262.078125 61.210938 C 262.078125 58.042969 259.511719 55.46875 256.339844 55.46875 C 253.164062 55.46875 250.601562 58.042969 250.601562 61.210938 L 250.601562 89.90625 L 227.644531 89.90625 L 227.644531 61.210938 C 227.644531 58.042969 225.078125 55.46875 221.90625 55.46875 C 218.730469 55.46875 216.164062 58.042969 216.164062 61.210938 L 216.164062 89.90625 L 193.210938 89.90625 L 193.210938 61.210938 C 193.210938 58.042969 190.636719 55.46875 187.46875 55.46875 C 184.300781 55.46875 181.730469 58.042969 181.730469 61.210938 L 181.730469 89.90625 L 158.773438 89.90625 L 158.773438 61.210938 C 158.773438 58.042969 156.203125 55.46875 153.035156 55.46875 C 149.867188 55.46875 147.296875 58.042969 147.296875 61.210938 L 147.296875 89.90625 L 124.339844 89.90625 L 124.339844 61.210938 C 124.339844 58.042969 121.769531 55.46875 118.601562 55.46875 C 115.433594 55.46875 112.863281 58.042969 112.863281 61.210938 L 112.863281 89.90625 L 107.121094 89.90625 C 97.628906 89.90625 89.90625 97.628906 89.90625 107.121094 L 89.90625 112.863281 L 61.210938 112.863281 C 58.042969 112.863281 55.46875 115.433594 55.46875 118.601562 C 55.46875 121.769531 58.042969 124.339844 61.210938 124.339844 L 89.90625 124.339844 L 89.90625 147.296875 L 61.210938 147.296875 C 58.042969 147.296875 55.46875 149.867188 55.46875 153.035156 C 55.46875 156.203125 58.042969 158.773438 61.210938 158.773438 L 89.90625 158.773438 L 89.90625 181.730469 L 61.210938 181.730469 C 58.042969 181.730469 55.46875 184.300781 55.46875 187.46875 C 55.46875 190.636719 58.042969 193.210938 61.210938 193.210938 L 89.90625 193.210938 L 89.90625 216.164062 L 61.210938 216.164062 C 58.042969 216.164062 55.46875 218.730469 55.46875 221.90625 C 55.46875 225.078125 58.042969 227.644531 61.210938 227.644531 L 89.90625 227.644531 L 89.90625 250.601562 L 61.210938 250.601562 C 58.042969 250.601562 55.46875 253.164062 55.46875 256.339844 C 55.46875 259.511719 58.042969 262.078125 61.210938 262.078125 L 89.90625 262.078125 L 89.90625 267.816406 C 89.90625 277.308594 97.628906 285.035156 107.121094 285.035156 L 112.863281 285.035156 L 112.863281 313.730469 C 112.863281 316.90625 115.433594 319.46875 118.601562 319.46875 C 121.769531 319.46875 124.339844 316.90625 124.339844 313.730469 L 124.339844 285.035156 L 147.296875 285.035156 L 147.296875 313.730469 C 147.296875 316.90625 149.867188 319.46875 153.035156 319.46875 C 156.203125 319.46875 158.773438 316.90625 158.773438 313.730469 L 158.773438 285.035156 L 181.730469 285.035156 L 181.730469 313.730469 C 181.730469 316.90625 184.300781 319.46875 187.46875 319.46875 C 190.636719 319.46875 193.210938 316.90625 193.210938 313.730469 L 193.210938 285.035156 L 216.164062 285.035156 L 216.164062 313.730469 C 216.164062 316.90625 218.730469 319.46875 221.90625 319.46875 C 225.078125 319.46875 227.644531 316.90625 227.644531 313.730469 L 227.644531 285.035156 L 250.601562 285.035156 L 250.601562 313.730469 C 250.601562 316.90625 253.164062 319.46875 256.339844 319.46875 C 259.511719 319.46875 262.078125 316.90625 262.078125 313.730469 L 262.078125 285.035156 L 267.816406 285.035156 C 277.308594 285.035156 285.035156 277.308594 285.035156 267.816406 L 285.035156 262.078125 L 313.730469 262.078125 C 316.90625 262.078125 319.46875 259.511719 319.46875 256.339844 C 319.46875 253.164062 316.90625 250.601562 313.730469 250.601562 L 285.035156 250.601562 L 285.035156 227.644531 L 313.730469 227.644531 C 316.90625 227.644531 319.46875 225.078125 319.46875 221.90625 C 319.46875 218.730469 316.90625 216.164062 313.730469 216.164062 L 285.035156 216.164062 L 285.035156 193.210938 L 313.730469 193.210938 C 316.90625 193.210938 319.46875 190.636719 319.46875 187.46875 C 319.46875 184.300781 316.90625 181.730469 313.730469 181.730469 L 285.035156 181.730469 L 285.035156 158.773438 Z M 273.558594 267.816406 C 273.558594 270.984375 270.984375 273.558594 267.816406 273.558594 L 107.121094 273.558594 C 103.960938 273.558594 101.382812 270.984375 101.382812 267.816406 L 101.382812 107.121094 C 101.382812 103.960938 103.960938 101.382812 107.121094 101.382812 L 267.816406 101.382812 C 270.984375 101.382812 273.558594 103.960938 273.558594 107.121094 Z M 273.558594 267.816406 "/></g><g clip-rule="nonzero" clip-path="url(#cf2c7de776)"><path style=" stroke:none;fill-rule:nonzero;fill:#000000;fill-opacity:1;" d="M 354.207031 237.78125 L 343.378906 235.078125 L 340.40625 227.894531 L 346.152344 218.320312 C 346.453125 217.820312 346.710938 217.296875 346.925781 216.753906 C 347.140625 216.207031 347.308594 215.648438 347.429688 215.078125 C 347.550781 214.503906 347.625 213.925781 347.652344 213.34375 C 347.675781 212.757812 347.652344 212.175781 347.582031 211.59375 C 347.511719 211.015625 347.390625 210.445312 347.226562 209.882812 C 347.058594 209.320312 346.847656 208.777344 346.589844 208.253906 C 346.332031 207.726562 346.035156 207.226562 345.695312 206.75 C 345.355469 206.273438 344.976562 205.832031 344.5625 205.417969 L 332.417969 193.273438 C 332.003906 192.859375 331.5625 192.480469 331.085938 192.140625 C 330.609375 191.800781 330.109375 191.5 329.582031 191.242188 C 329.058594 190.988281 328.515625 190.773438 327.953125 190.609375 C 327.390625 190.441406 326.820312 190.324219 326.242188 190.25 C 325.660156 190.179688 325.078125 190.15625 324.492188 190.183594 C 323.90625 190.207031 323.328125 190.28125 322.757812 190.402344 C 322.183594 190.527344 321.625 190.695312 321.082031 190.910156 C 320.539062 191.125 320.015625 191.382812 319.515625 191.683594 L 309.941406 197.425781 L 302.757812 194.453125 L 300.054688 183.617188 C 299.914062 183.050781 299.726562 182.5 299.492188 181.960938 C 299.257812 181.425781 298.980469 180.914062 298.660156 180.421875 C 298.34375 179.929688 297.984375 179.46875 297.589844 179.039062 C 297.195312 178.609375 296.765625 178.210938 296.304688 177.851562 C 295.839844 177.492188 295.355469 177.171875 294.839844 176.894531 C 294.324219 176.617188 293.789062 176.382812 293.238281 176.191406 C 292.683594 176 292.117188 175.859375 291.539062 175.761719 C 290.964844 175.667969 290.382812 175.617188 289.796875 175.621094 L 272.628906 175.621094 C 272.042969 175.617188 271.460938 175.667969 270.882812 175.761719 C 270.308594 175.859375 269.742188 176.003906 269.1875 176.191406 C 268.632812 176.382812 268.101562 176.617188 267.585938 176.898438 C 267.070312 177.175781 266.582031 177.496094 266.121094 177.855469 C 265.660156 178.214844 265.234375 178.609375 264.835938 179.042969 C 264.441406 179.472656 264.082031 179.933594 263.765625 180.425781 C 263.445312 180.914062 263.167969 181.429688 262.9375 181.964844 C 262.703125 182.503906 262.515625 183.054688 262.371094 183.621094 L 259.667969 194.453125 L 252.488281 197.425781 L 242.921875 191.683594 C 242.417969 191.382812 241.894531 191.125 241.351562 190.910156 C 240.804688 190.695312 240.246094 190.527344 239.675781 190.40625 C 239.101562 190.285156 238.523438 190.210938 237.941406 190.1875 C 237.355469 190.160156 236.773438 190.183594 236.191406 190.257812 C 235.609375 190.328125 235.039062 190.445312 234.480469 190.613281 C 233.917969 190.777344 233.375 190.992188 232.847656 191.246094 C 232.320312 191.503906 231.820312 191.800781 231.34375 192.140625 C 230.867188 192.480469 230.421875 192.859375 230.007812 193.273438 L 217.863281 205.417969 C 217.449219 205.832031 217.070312 206.273438 216.730469 206.75 C 216.390625 207.226562 216.09375 207.726562 215.835938 208.253906 C 215.578125 208.78125 215.367188 209.324219 215.199219 209.882812 C 215.035156 210.445312 214.914062 211.015625 214.84375 211.597656 C 214.769531 212.175781 214.746094 212.757812 214.773438 213.34375 C 214.796875 213.929688 214.871094 214.507812 214.992188 215.078125 C 215.113281 215.652344 215.28125 216.210938 215.496094 216.753906 C 215.710938 217.300781 215.96875 217.824219 216.269531 218.324219 L 222.015625 227.894531 L 219.042969 235.078125 L 208.21875 237.78125 C 207.652344 237.925781 207.097656 238.113281 206.5625 238.34375 C 206.023438 238.578125 205.511719 238.851562 205.019531 239.171875 C 204.527344 239.492188 204.066406 239.847656 203.636719 240.242188 C 203.203125 240.636719 202.808594 241.066406 202.449219 241.527344 C 202.089844 241.988281 201.769531 242.476562 201.488281 242.992188 C 201.210938 243.503906 200.976562 244.039062 200.785156 244.59375 C 200.59375 245.144531 200.453125 245.710938 200.355469 246.289062 C 200.257812 246.867188 200.210938 247.445312 200.210938 248.03125 L 200.210938 265.207031 C 200.210938 265.792969 200.257812 266.375 200.355469 266.949219 C 200.453125 267.527344 200.59375 268.09375 200.785156 268.648438 C 200.976562 269.199219 201.210938 269.734375 201.488281 270.25 C 201.769531 270.761719 202.089844 271.25 202.449219 271.710938 C 202.808594 272.171875 203.203125 272.601562 203.636719 272.996094 C 204.066406 273.390625 204.527344 273.75 205.019531 274.066406 C 205.511719 274.386719 206.023438 274.660156 206.5625 274.894531 C 207.097656 275.128906 207.652344 275.316406 208.21875 275.457031 L 219.042969 278.164062 L 222.015625 285.34375 L 216.269531 294.917969 C 215.96875 295.417969 215.710938 295.941406 215.496094 296.488281 C 215.28125 297.03125 215.113281 297.589844 214.992188 298.160156 C 214.871094 298.734375 214.796875 299.3125 214.773438 299.894531 C 214.746094 300.480469 214.769531 301.0625 214.839844 301.644531 C 214.914062 302.226562 215.03125 302.796875 215.199219 303.355469 C 215.363281 303.917969 215.578125 304.460938 215.832031 304.984375 C 216.089844 305.511719 216.390625 306.011719 216.730469 306.488281 C 217.070312 306.964844 217.445312 307.410156 217.859375 307.820312 L 230.007812 319.964844 C 230.421875 320.382812 230.863281 320.757812 231.339844 321.101562 C 231.816406 321.441406 232.316406 321.738281 232.84375 321.996094 C 233.367188 322.253906 233.910156 322.464844 234.472656 322.632812 C 235.03125 322.800781 235.605469 322.917969 236.183594 322.992188 C 236.765625 323.0625 237.347656 323.085938 237.933594 323.058594 C 238.519531 323.035156 239.097656 322.960938 239.667969 322.835938 C 240.242188 322.714844 240.800781 322.546875 241.34375 322.332031 C 241.886719 322.117188 242.410156 321.855469 242.910156 321.554688 L 252.484375 315.8125 L 259.667969 318.785156 L 262.371094 329.621094 C 262.511719 330.1875 262.699219 330.738281 262.933594 331.277344 C 263.167969 331.8125 263.445312 332.328125 263.761719 332.816406 C 264.082031 333.308594 264.441406 333.769531 264.835938 334.199219 C 265.230469 334.628906 265.660156 335.027344 266.121094 335.386719 C 266.582031 335.746094 267.070312 336.066406 267.585938 336.34375 C 268.101562 336.621094 268.632812 336.855469 269.1875 337.046875 C 269.742188 337.238281 270.308594 337.378906 270.882812 337.476562 C 271.460938 337.570312 272.042969 337.621094 272.628906 337.621094 L 289.796875 337.621094 C 290.382812 337.621094 290.964844 337.570312 291.539062 337.476562 C 292.117188 337.378906 292.683594 337.234375 293.238281 337.046875 C 293.789062 336.855469 294.324219 336.621094 294.839844 336.34375 C 295.351562 336.0625 295.839844 335.742188 296.300781 335.382812 C 296.761719 335.023438 297.191406 334.628906 297.585938 334.195312 C 297.984375 333.765625 298.339844 333.304688 298.660156 332.8125 C 298.976562 332.324219 299.253906 331.808594 299.488281 331.273438 C 299.722656 330.738281 299.910156 330.183594 300.050781 329.617188 L 302.753906 318.785156 L 309.9375 315.8125 L 319.503906 321.554688 C 320.003906 321.859375 320.527344 322.117188 321.074219 322.332031 C 321.617188 322.546875 322.175781 322.71875 322.75 322.839844 C 323.320312 322.960938 323.898438 323.035156 324.484375 323.0625 C 325.070312 323.085938 325.652344 323.066406 326.234375 322.992188 C 326.816406 322.921875 327.386719 322.800781 327.949219 322.636719 C 328.507812 322.46875 329.050781 322.257812 329.578125 322 C 330.105469 321.742188 330.605469 321.441406 331.082031 321.101562 C 331.558594 320.761719 332 320.382812 332.414062 319.964844 L 344.5625 307.824219 C 344.976562 307.414062 345.355469 306.96875 345.695312 306.492188 C 346.035156 306.015625 346.332031 305.515625 346.589844 304.988281 C 346.847656 304.460938 347.058594 303.917969 347.226562 303.359375 C 347.390625 302.796875 347.511719 302.226562 347.582031 301.644531 C 347.65625 301.0625 347.675781 300.480469 347.652344 299.894531 C 347.625 299.3125 347.554688 298.734375 347.429688 298.160156 C 347.308594 297.585938 347.140625 297.027344 346.925781 296.484375 C 346.710938 295.941406 346.453125 295.417969 346.152344 294.914062 L 340.410156 285.34375 L 343.382812 278.164062 L 354.207031 275.457031 C 354.777344 275.316406 355.328125 275.128906 355.863281 274.894531 C 356.402344 274.660156 356.914062 274.386719 357.40625 274.066406 C 357.898438 273.746094 358.359375 273.390625 358.789062 272.996094 C 359.21875 272.601562 359.617188 272.171875 359.976562 271.710938 C 360.335938 271.25 360.65625 270.761719 360.933594 270.246094 C 361.214844 269.734375 361.449219 269.199219 361.640625 268.644531 C 361.828125 268.09375 361.972656 267.527344 362.070312 266.949219 C 362.164062 266.375 362.210938 265.792969 362.210938 265.207031 L 362.210938 248.03125 C 362.210938 247.445312 362.164062 246.867188 362.070312 246.289062 C 361.972656 245.710938 361.828125 245.144531 361.640625 244.59375 C 361.449219 244.039062 361.214844 243.503906 360.933594 242.992188 C 360.65625 242.476562 360.335938 241.988281 359.976562 241.527344 C 359.617188 241.066406 359.21875 240.636719 358.789062 240.242188 C 358.355469 239.847656 357.894531 239.492188 357.402344 239.171875 C 356.914062 238.851562 356.398438 238.578125 355.863281 238.34375 C 355.324219 238.113281 354.773438 237.925781 354.207031 237.78125 Z M 355.167969 265.207031 C 355.167969 265.601562 355.105469 265.980469 354.976562 266.355469 C 354.847656 266.726562 354.664062 267.066406 354.421875 267.375 C 354.179688 267.6875 353.894531 267.949219 353.566406 268.160156 C 353.238281 268.375 352.882812 268.53125 352.5 268.625 L 339.953125 271.761719 C 339.414062 271.898438 338.929688 272.144531 338.507812 272.511719 C 338.085938 272.875 337.765625 273.316406 337.554688 273.832031 L 333.222656 284.289062 C 333.007812 284.804688 332.921875 285.339844 332.964844 285.898438 C 333.003906 286.453125 333.167969 286.96875 333.453125 287.449219 L 340.113281 298.539062 C 340.316406 298.875 340.457031 299.234375 340.539062 299.621094 C 340.621094 300.003906 340.636719 300.390625 340.589844 300.78125 C 340.542969 301.171875 340.433594 301.542969 340.257812 301.894531 C 340.085938 302.25 339.863281 302.566406 339.582031 302.84375 L 327.4375 314.988281 C 327.160156 315.265625 326.84375 315.492188 326.492188 315.664062 C 326.136719 315.835938 325.765625 315.949219 325.375 315.996094 C 324.984375 316.042969 324.597656 316.027344 324.210938 315.945312 C 323.828125 315.863281 323.46875 315.71875 323.128906 315.515625 L 312.035156 308.859375 C 311.558594 308.574219 311.039062 308.40625 310.484375 308.367188 C 309.925781 308.324219 309.390625 308.414062 308.875 308.628906 L 298.421875 312.957031 C 297.90625 313.171875 297.464844 313.488281 297.101562 313.910156 C 296.738281 314.335938 296.488281 314.816406 296.351562 315.359375 L 293.214844 327.90625 C 293.121094 328.289062 292.964844 328.644531 292.75 328.972656 C 292.539062 329.304688 292.277344 329.589844 291.964844 329.832031 C 291.65625 330.074219 291.316406 330.257812 290.945312 330.386719 C 290.570312 330.511719 290.191406 330.578125 289.796875 330.574219 L 272.628906 330.574219 C 272.234375 330.578125 271.851562 330.511719 271.480469 330.386719 C 271.109375 330.257812 270.769531 330.074219 270.460938 329.832031 C 270.148438 329.589844 269.886719 329.304688 269.671875 328.976562 C 269.457031 328.648438 269.304688 328.292969 269.210938 327.910156 L 266.074219 315.359375 C 265.9375 314.816406 265.6875 314.335938 265.320312 313.910156 C 264.957031 313.488281 264.515625 313.171875 264.003906 312.957031 L 253.546875 308.628906 C 253.117188 308.449219 252.667969 308.359375 252.199219 308.359375 C 251.550781 308.355469 250.945312 308.523438 250.390625 308.859375 L 239.289062 315.515625 C 238.953125 315.71875 238.59375 315.859375 238.207031 315.941406 C 237.824219 316.023438 237.4375 316.042969 237.046875 315.996094 C 236.660156 315.945312 236.289062 315.835938 235.9375 315.664062 C 235.582031 315.488281 235.269531 315.265625 234.992188 314.984375 L 222.84375 302.84375 C 222.5625 302.566406 222.339844 302.25 222.167969 301.894531 C 221.996094 301.542969 221.886719 301.171875 221.835938 300.78125 C 221.789062 300.394531 221.804688 300.003906 221.886719 299.621094 C 221.96875 299.238281 222.109375 298.875 222.3125 298.539062 L 228.96875 287.449219 C 229.257812 286.96875 229.421875 286.453125 229.460938 285.894531 C 229.503906 285.339844 229.417969 284.804688 229.203125 284.289062 L 224.871094 273.828125 C 224.65625 273.3125 224.339844 272.875 223.917969 272.511719 C 223.492188 272.144531 223.011719 271.898438 222.46875 271.761719 L 209.921875 268.625 C 209.542969 268.53125 209.1875 268.375 208.855469 268.160156 C 208.527344 267.949219 208.242188 267.6875 208 267.375 C 207.757812 267.066406 207.574219 266.726562 207.445312 266.355469 C 207.320312 265.980469 207.253906 265.601562 207.253906 265.207031 L 207.253906 248.03125 C 207.253906 247.640625 207.320312 247.257812 207.445312 246.886719 C 207.574219 246.511719 207.757812 246.171875 208 245.863281 C 208.242188 245.554688 208.527344 245.292969 208.859375 245.078125 C 209.1875 244.863281 209.542969 244.707031 209.925781 244.613281 L 222.46875 241.476562 C 223.011719 241.339844 223.492188 241.09375 223.914062 240.726562 C 224.339844 240.363281 224.65625 239.925781 224.871094 239.410156 L 229.203125 228.949219 C 229.414062 228.433594 229.5 227.898438 229.460938 227.34375 C 229.421875 226.785156 229.257812 226.269531 228.96875 225.789062 L 222.3125 214.703125 C 222.109375 214.367188 221.96875 214.003906 221.886719 213.621094 C 221.804688 213.234375 221.789062 212.847656 221.835938 212.457031 C 221.882812 212.066406 221.992188 211.695312 222.167969 211.34375 C 222.339844 210.988281 222.5625 210.675781 222.84375 210.398438 L 234.988281 198.253906 C 235.265625 197.972656 235.582031 197.75 235.933594 197.574219 C 236.289062 197.402344 236.660156 197.292969 237.050781 197.246094 C 237.441406 197.195312 237.828125 197.214844 238.210938 197.296875 C 238.597656 197.378906 238.957031 197.519531 239.292969 197.722656 L 250.390625 204.378906 C 250.867188 204.664062 251.382812 204.828125 251.941406 204.871094 C 252.496094 204.914062 253.03125 204.824219 253.546875 204.613281 L 264.003906 200.28125 C 264.515625 200.066406 264.957031 199.75 265.320312 199.328125 C 265.6875 198.90625 265.9375 198.421875 266.074219 197.882812 L 269.210938 185.332031 C 269.304688 184.949219 269.457031 184.59375 269.671875 184.265625 C 269.886719 183.933594 270.148438 183.648438 270.457031 183.40625 C 270.769531 183.164062 271.109375 182.980469 271.480469 182.851562 C 271.851562 182.726562 272.234375 182.664062 272.628906 182.664062 L 289.796875 182.664062 C 290.1875 182.664062 290.570312 182.726562 290.941406 182.851562 C 291.316406 182.980469 291.65625 183.164062 291.964844 183.40625 C 292.273438 183.648438 292.535156 183.933594 292.75 184.261719 C 292.964844 184.59375 293.121094 184.945312 293.214844 185.328125 L 296.351562 197.882812 C 296.488281 198.421875 296.738281 198.90625 297.101562 199.328125 C 297.464844 199.75 297.90625 200.066406 298.421875 200.28125 L 308.875 204.613281 C 309.390625 204.824219 309.925781 204.914062 310.484375 204.871094 C 311.039062 204.828125 311.554688 204.664062 312.035156 204.378906 L 323.136719 197.722656 C 323.472656 197.519531 323.832031 197.378906 324.214844 197.296875 C 324.597656 197.214844 324.984375 197.199219 325.375 197.246094 C 325.765625 197.292969 326.136719 197.40625 326.488281 197.578125 C 326.839844 197.75 327.15625 197.976562 327.433594 198.253906 L 339.578125 210.398438 C 339.855469 210.675781 340.082031 210.988281 340.253906 211.34375 C 340.425781 211.695312 340.535156 212.066406 340.585938 212.457031 C 340.632812 212.847656 340.617188 213.234375 340.535156 213.617188 C 340.453125 214 340.3125 214.363281 340.109375 214.699219 L 333.453125 225.789062 C 333.167969 226.269531 333.003906 226.785156 332.960938 227.34375 C 332.921875 227.898438 333.007812 228.433594 333.21875 228.953125 L 337.554688 239.410156 C 337.765625 239.925781 338.085938 240.363281 338.507812 240.730469 C 338.929688 241.09375 339.414062 241.34375 339.953125 241.476562 L 352.5 244.613281 C 352.882812 244.707031 353.238281 244.863281 353.566406 245.078125 C 353.898438 245.289062 354.183594 245.550781 354.425781 245.863281 C 354.667969 246.171875 354.851562 246.511719 354.980469 246.882812 C 355.105469 247.257812 355.171875 247.636719 355.171875 248.03125 Z M 355.167969 265.207031 "/></g><path style=" stroke:none;fill-rule:nonzero;fill:#000000;fill-opacity:1;" d="M 281.210938 217.878906 C 279.941406 217.878906 278.675781 217.941406 277.414062 218.066406 C 276.152344 218.191406 274.898438 218.378906 273.65625 218.625 C 272.410156 218.871094 271.179688 219.179688 269.964844 219.546875 C 268.753906 219.917969 267.558594 220.34375 266.386719 220.828125 C 265.214844 221.316406 264.070312 221.855469 262.949219 222.453125 C 261.832031 223.050781 260.746094 223.703125 259.691406 224.410156 C 258.636719 225.113281 257.617188 225.867188 256.636719 226.671875 C 255.65625 227.480469 254.714844 228.328125 253.820312 229.226562 C 252.921875 230.125 252.070312 231.0625 251.265625 232.042969 C 250.460938 233.023438 249.707031 234.042969 249 235.097656 C 248.296875 236.152344 247.644531 237.238281 247.046875 238.359375 C 246.449219 239.476562 245.90625 240.621094 245.421875 241.792969 C 244.9375 242.96875 244.507812 244.160156 244.140625 245.375 C 243.773438 246.589844 243.464844 247.816406 243.21875 249.0625 C 242.96875 250.304688 242.785156 251.558594 242.660156 252.824219 C 242.535156 254.085938 242.472656 255.351562 242.472656 256.621094 C 242.472656 257.886719 242.535156 259.152344 242.660156 260.417969 C 242.785156 261.679688 242.96875 262.933594 243.21875 264.175781 C 243.464844 265.421875 243.773438 266.652344 244.140625 267.863281 C 244.507812 269.078125 244.9375 270.273438 245.421875 271.445312 C 245.90625 272.617188 246.449219 273.761719 247.046875 274.882812 C 247.644531 276 248.296875 277.085938 249 278.140625 C 249.707031 279.195312 250.460938 280.214844 251.265625 281.195312 C 252.070312 282.175781 252.921875 283.113281 253.820312 284.011719 C 254.714844 284.910156 255.65625 285.761719 256.636719 286.566406 C 257.617188 287.371094 258.636719 288.125 259.691406 288.828125 C 260.746094 289.535156 261.832031 290.1875 262.949219 290.785156 C 264.070312 291.382812 265.214844 291.925781 266.386719 292.410156 C 267.558594 292.894531 268.753906 293.320312 269.964844 293.691406 C 271.179688 294.058594 272.410156 294.367188 273.65625 294.613281 C 274.898438 294.863281 276.152344 295.046875 277.414062 295.171875 C 278.675781 295.296875 279.941406 295.359375 281.210938 295.359375 C 282.480469 295.359375 283.746094 295.296875 285.007812 295.171875 C 286.273438 295.046875 287.523438 294.863281 288.769531 294.613281 C 290.015625 294.367188 291.242188 294.058594 292.457031 293.691406 C 293.671875 293.320312 294.863281 292.894531 296.035156 292.410156 C 297.210938 291.925781 298.355469 291.382812 299.472656 290.785156 C 300.59375 290.1875 301.679688 289.535156 302.734375 288.828125 C 303.789062 288.125 304.808594 287.371094 305.789062 286.566406 C 306.769531 285.761719 307.707031 284.910156 308.605469 284.011719 C 309.5 283.113281 310.351562 282.175781 311.15625 281.195312 C 311.960938 280.214844 312.71875 279.195312 313.421875 278.140625 C 314.128906 277.085938 314.777344 276 315.375 274.882812 C 315.976562 273.761719 316.515625 272.617188 317.003906 271.445312 C 317.488281 270.273438 317.914062 269.078125 318.28125 267.863281 C 318.652344 266.652344 318.960938 265.421875 319.207031 264.175781 C 319.453125 262.933594 319.640625 261.679688 319.765625 260.417969 C 319.890625 259.152344 319.949219 257.886719 319.949219 256.621094 C 319.949219 255.351562 319.886719 254.085938 319.761719 252.824219 C 319.636719 251.5625 319.449219 250.308594 319.199219 249.066406 C 318.949219 247.820312 318.640625 246.59375 318.273438 245.378906 C 317.902344 244.164062 317.476562 242.972656 316.988281 241.800781 C 316.503906 240.628906 315.960938 239.484375 315.363281 238.367188 C 314.765625 237.25 314.113281 236.164062 313.40625 235.109375 C 312.703125 234.054688 311.949219 233.035156 311.144531 232.054688 C 310.339844 231.074219 309.488281 230.136719 308.589844 229.242188 C 307.695312 228.34375 306.753906 227.492188 305.773438 226.6875 C 304.796875 225.882812 303.777344 225.128906 302.722656 224.421875 C 301.667969 223.71875 300.582031 223.066406 299.464844 222.46875 C 298.347656 221.871094 297.199219 221.328125 296.03125 220.839844 C 294.859375 220.355469 293.664062 219.929688 292.453125 219.558594 C 291.238281 219.191406 290.011719 218.882812 288.765625 218.632812 C 287.523438 218.382812 286.269531 218.195312 285.007812 218.070312 C 283.746094 217.945312 282.480469 217.882812 281.210938 217.878906 Z M 281.210938 288.316406 C 280.175781 288.316406 279.136719 288.265625 278.105469 288.164062 C 277.070312 288.0625 276.046875 287.910156 275.027344 287.707031 C 274.011719 287.503906 273.003906 287.25 272.011719 286.949219 C 271.019531 286.648438 270.042969 286.300781 269.082031 285.902344 C 268.125 285.503906 267.1875 285.0625 266.269531 284.574219 C 265.355469 284.082031 264.464844 283.550781 263.601562 282.972656 C 262.738281 282.398438 261.90625 281.777344 261.105469 281.121094 C 260.300781 280.460938 259.535156 279.765625 258.800781 279.03125 C 258.066406 278.296875 257.371094 277.53125 256.710938 276.726562 C 256.050781 275.925781 255.433594 275.089844 254.859375 274.230469 C 254.28125 273.367188 253.75 272.476562 253.257812 271.5625 C 252.769531 270.644531 252.328125 269.707031 251.929688 268.75 C 251.53125 267.789062 251.183594 266.8125 250.882812 265.820312 C 250.578125 264.828125 250.328125 263.820312 250.125 262.804688 C 249.921875 261.785156 249.769531 260.757812 249.667969 259.726562 C 249.566406 258.691406 249.515625 257.65625 249.515625 256.621094 C 249.515625 255.582031 249.566406 254.546875 249.667969 253.511719 C 249.769531 252.480469 249.921875 251.453125 250.125 250.4375 C 250.328125 249.417969 250.578125 248.410156 250.882812 247.417969 C 251.183594 246.425781 251.53125 245.449219 251.929688 244.488281 C 252.328125 243.53125 252.769531 242.59375 253.257812 241.679688 C 253.75 240.761719 254.28125 239.875 254.859375 239.011719 C 255.433594 238.148438 256.050781 237.3125 256.710938 236.511719 C 257.371094 235.710938 258.066406 234.941406 258.800781 234.207031 C 259.535156 233.472656 260.300781 232.777344 261.105469 232.117188 C 261.90625 231.460938 262.738281 230.84375 263.601562 230.265625 C 264.464844 229.6875 265.355469 229.15625 266.269531 228.667969 C 267.1875 228.175781 268.125 227.734375 269.082031 227.335938 C 270.042969 226.9375 271.019531 226.589844 272.011719 226.289062 C 273.003906 225.988281 274.011719 225.734375 275.027344 225.53125 C 276.046875 225.332031 277.070312 225.179688 278.105469 225.078125 C 279.136719 224.976562 280.175781 224.921875 281.210938 224.921875 C 282.25 224.921875 283.285156 224.976562 284.320312 225.078125 C 285.351562 225.179688 286.378906 225.332031 287.394531 225.53125 C 288.414062 225.734375 289.417969 225.988281 290.414062 226.289062 C 291.40625 226.589844 292.382812 226.9375 293.339844 227.335938 C 294.300781 227.734375 295.238281 228.175781 296.152344 228.667969 C 297.070312 229.15625 297.957031 229.6875 298.820312 230.265625 C 299.683594 230.84375 300.515625 231.460938 301.320312 232.117188 C 302.121094 232.777344 302.890625 233.472656 303.625 234.207031 C 304.359375 234.941406 305.054688 235.710938 305.714844 236.511719 C 306.371094 237.3125 306.988281 238.148438 307.566406 239.011719 C 308.144531 239.875 308.675781 240.761719 309.164062 241.679688 C 309.65625 242.59375 310.097656 243.53125 310.496094 244.488281 C 310.890625 245.449219 311.242188 246.425781 311.542969 247.417969 C 311.84375 248.410156 312.097656 249.417969 312.296875 250.4375 C 312.5 251.453125 312.652344 252.480469 312.753906 253.511719 C 312.855469 254.546875 312.90625 255.582031 312.90625 256.621094 C 312.90625 257.65625 312.855469 258.691406 312.75 259.726562 C 312.648438 260.757812 312.496094 261.78125 312.292969 262.800781 C 312.089844 263.816406 311.835938 264.824219 311.535156 265.816406 C 311.234375 266.808594 310.882812 267.785156 310.484375 268.742188 C 310.089844 269.703125 309.644531 270.640625 309.15625 271.554688 C 308.664062 272.46875 308.132812 273.359375 307.554688 274.21875 C 306.976562 275.082031 306.359375 275.914062 305.703125 276.71875 C 305.042969 277.519531 304.347656 278.289062 303.613281 279.019531 C 302.878906 279.753906 302.113281 280.453125 301.308594 281.109375 C 300.507812 281.769531 299.675781 282.386719 298.8125 282.960938 C 297.949219 283.539062 297.0625 284.074219 296.144531 284.5625 C 295.230469 285.050781 294.292969 285.496094 293.335938 285.894531 C 292.378906 286.289062 291.402344 286.640625 290.410156 286.941406 C 289.414062 287.246094 288.410156 287.496094 287.394531 287.699219 C 286.375 287.902344 285.351562 288.054688 284.316406 288.160156 C 283.285156 288.261719 282.25 288.3125 281.210938 288.316406 Z M 281.210938 288.316406 "/><g clip-rule="nonzero" clip-path="url(#a96a3b5632)"><path style=" stroke:none;fill-rule:nonzero;fill:#ffffff;fill-opacity:1;" d="M 281.148438 285.621094 C 265.09375 285.621094 252.082031 272.609375 252.082031 256.554688 C 252.082031 240.503906 265.09375 227.492188 281.148438 227.492188 C 297.199219 227.492188 310.210938 240.503906 310.210938 256.554688 C 310.210938 272.609375 297.199219 285.621094 281.148438 285.621094 Z M 347.8125 242.964844 L 334.800781 241.425781 C 333.625 237.246094 331.957031 233.175781 329.789062 229.308594 L 337.894531 219.023438 C 339.25 217.308594 339.105469 214.851562 337.558594 213.308594 L 324.394531 200.144531 C 322.851562 198.597656 320.394531 198.453125 318.679688 199.804688 L 308.394531 207.914062 C 304.527344 205.746094 300.457031 204.078125 296.277344 202.902344 L 294.738281 189.886719 C 294.480469 187.71875 292.640625 186.085938 290.453125 186.085938 L 271.839844 186.085938 C 269.65625 186.085938 267.816406 187.71875 267.558594 189.886719 L 266.019531 202.902344 C 261.839844 204.078125 257.769531 205.746094 253.902344 207.914062 L 243.617188 199.804688 C 241.902344 198.453125 239.445312 198.597656 237.898438 200.144531 L 224.738281 213.308594 C 223.191406 214.851562 223.046875 217.308594 224.398438 219.023438 L 232.507812 229.308594 C 230.335938 233.175781 228.667969 237.246094 227.496094 241.425781 L 214.480469 242.964844 C 212.3125 243.222656 210.675781 245.0625 210.675781 247.246094 L 210.675781 265.863281 C 210.675781 268.046875 212.3125 269.886719 214.480469 270.144531 L 227.496094 271.683594 C 228.667969 275.863281 230.335938 279.933594 232.507812 283.800781 L 224.398438 294.085938 C 223.046875 295.800781 223.191406 298.257812 224.738281 299.804688 L 237.898438 312.964844 C 239.445312 314.511719 241.902344 314.65625 243.617188 313.304688 L 253.902344 305.195312 C 257.769531 307.363281 261.839844 309.03125 266.019531 310.207031 L 267.558594 323.21875 C 267.816406 325.390625 269.65625 327.027344 271.839844 327.027344 L 290.148438 327.027344 C 292.292969 327.027344 294.113281 325.445312 294.414062 323.320312 L 296.277344 310.207031 C 300.457031 309.03125 304.527344 307.363281 308.394531 305.195312 L 318.679688 313.304688 C 320.394531 314.65625 322.851562 314.511719 324.394531 312.964844 L 337.558594 299.804688 C 339.105469 298.257812 339.25 295.800781 337.894531 294.085938 L 329.789062 283.800781 C 331.957031 279.933594 333.625 275.863281 334.800781 271.683594 L 347.8125 270.144531 C 349.984375 269.886719 351.617188 268.046875 351.617188 265.863281 L 351.617188 247.246094 C 351.617188 245.0625 349.984375 243.222656 347.8125 242.964844 "/></g><g clip-rule="nonzero" clip-path="url(#de8de67713)"><g clip-rule="nonzero" clip-path="url(#e515ba658f)"><path style="fill:none;stroke-width:20;stroke-linecap:butt;stroke-linejoin:miter;stroke:#000000;stroke-opacity:1;stroke-miterlimit:4;" d="M 44.860709 -0.000216083 C 20.084666 -0.000216083 0.00133154 20.083119 0.00133154 44.859162 C 0.00133154 69.635205 20.084666 89.71854 44.860709 89.71854 C 69.636753 89.71854 89.720087 69.635205 89.720087 44.859162 C 89.720087 20.083119 69.636753 -0.000216083 44.860709 -0.000216083 Z M 44.860709 -0.000216083 " transform="matrix(0.75,0,0,0.75,247.506814,222.914225)"/></g></g></g></svg>