<svg xmlns="http://www.w3.org/2000/svg" xmlns:xlink="http://www.w3.org/1999/xlink" width="500" zoomAndPan="magnify" viewBox="0 0 375 374.999991" height="500" preserveAspectRatio="xMidYMid meet" version="1.2"><defs><clipPath id="dd4c4d1ada"><path d="M 5 96 L 370 96 L 370 278.933594 L 5 278.933594 Z M 5 96 "/></clipPath></defs><g id="9a5fb7db11"><g clip-rule="nonzero" clip-path="url(#dd4c4d1ada)"><path style=" stroke:none;fill-rule:nonzero;fill:#000000;fill-opacity:1;" d="M 96.683594 278.933594 C 97.578125 278.933594 98.464844 278.867188 99.351562 278.734375 C 100.234375 278.605469 101.105469 278.40625 101.960938 278.148438 C 102.816406 277.890625 103.648438 277.566406 104.457031 277.183594 C 105.265625 276.804688 106.042969 276.363281 106.789062 275.867188 C 107.53125 275.371094 108.234375 274.820312 108.898438 274.21875 C 109.558594 273.621094 110.175781 272.972656 110.742188 272.28125 C 111.308594 271.589844 111.824219 270.859375 112.285156 270.09375 C 112.742188 269.328125 113.144531 268.53125 113.488281 267.703125 C 113.828125 266.878906 114.109375 266.03125 114.328125 265.164062 C 114.542969 264.292969 114.695312 263.414062 114.785156 262.527344 C 114.871094 261.636719 114.894531 260.742188 114.851562 259.851562 C 114.804688 258.957031 114.695312 258.070312 114.523438 257.195312 C 114.347656 256.316406 114.109375 255.457031 113.808594 254.613281 C 113.507812 253.773438 113.148438 252.957031 112.726562 252.167969 C 112.304688 251.378906 111.828125 250.625 111.292969 249.90625 C 110.761719 249.1875 110.179688 248.511719 109.546875 247.878906 L 67.835938 206.167969 L 351.34375 206.167969 C 351.941406 206.167969 352.535156 206.140625 353.128906 206.082031 C 353.722656 206.023438 354.308594 205.933594 354.894531 205.820312 C 355.480469 205.703125 356.054688 205.558594 356.625 205.386719 C 357.195312 205.210938 357.757812 205.011719 358.308594 204.785156 C 358.855469 204.554688 359.394531 204.300781 359.921875 204.019531 C 360.445312 203.738281 360.957031 203.433594 361.453125 203.101562 C 361.945312 202.773438 362.425781 202.417969 362.886719 202.039062 C 363.347656 201.660156 363.785156 201.261719 364.207031 200.839844 C 364.628906 200.417969 365.027344 199.976562 365.40625 199.519531 C 365.785156 199.058594 366.140625 198.578125 366.46875 198.082031 C 366.800781 197.589844 367.105469 197.078125 367.386719 196.550781 C 367.667969 196.027344 367.921875 195.488281 368.152344 194.9375 C 368.378906 194.386719 368.578125 193.828125 368.753906 193.257812 C 368.925781 192.6875 369.070312 192.109375 369.1875 191.527344 C 369.300781 190.941406 369.390625 190.351562 369.449219 189.761719 C 369.507812 189.167969 369.535156 188.574219 369.535156 187.976562 C 369.535156 187.382812 369.507812 186.789062 369.449219 186.195312 C 369.390625 185.601562 369.300781 185.011719 369.1875 184.429688 C 369.070312 183.84375 368.925781 183.265625 368.753906 182.695312 C 368.578125 182.125 368.378906 181.566406 368.152344 181.015625 C 367.921875 180.464844 367.667969 179.929688 367.386719 179.402344 C 367.105469 178.875 366.800781 178.367188 366.46875 177.871094 C 366.140625 177.375 365.785156 176.898438 365.40625 176.4375 C 365.027344 175.976562 364.628906 175.535156 364.207031 175.113281 C 363.785156 174.691406 363.347656 174.292969 362.886719 173.914062 C 362.425781 173.539062 361.945312 173.183594 361.453125 172.851562 C 360.957031 172.519531 360.445312 172.214844 359.921875 171.933594 C 359.394531 171.652344 358.855469 171.398438 358.308594 171.171875 C 357.757812 170.941406 357.195312 170.742188 356.625 170.570312 C 356.054688 170.398438 355.480469 170.253906 354.894531 170.136719 C 354.308594 170.019531 353.722656 169.933594 353.128906 169.875 C 352.535156 169.816406 351.941406 169.785156 351.34375 169.785156 L 67.835938 169.785156 L 109.546875 128.074219 C 109.96875 127.65625 110.371094 127.214844 110.753906 126.753906 C 111.132812 126.292969 111.492188 125.816406 111.824219 125.320312 C 112.160156 124.824219 112.46875 124.3125 112.75 123.789062 C 113.035156 123.261719 113.292969 122.722656 113.523438 122.171875 C 113.753906 121.621094 113.957031 121.058594 114.128906 120.488281 C 114.304688 119.917969 114.453125 119.339844 114.570312 118.753906 C 114.6875 118.167969 114.777344 117.578125 114.835938 116.984375 C 114.898438 116.386719 114.925781 115.792969 114.929688 115.195312 C 114.929688 114.597656 114.902344 114 114.84375 113.40625 C 114.785156 112.8125 114.699219 112.222656 114.585938 111.636719 C 114.46875 111.050781 114.324219 110.46875 114.152344 109.898438 C 113.980469 109.328125 113.777344 108.765625 113.550781 108.210938 C 113.324219 107.660156 113.066406 107.121094 112.785156 106.59375 C 112.503906 106.066406 112.199219 105.554688 111.867188 105.058594 C 111.535156 104.558594 111.179688 104.082031 110.800781 103.617188 C 110.421875 103.15625 110.023438 102.714844 109.597656 102.292969 C 109.175781 101.871094 108.734375 101.46875 108.273438 101.089844 C 107.808594 100.710938 107.332031 100.355469 106.832031 100.023438 C 106.335938 99.695312 105.824219 99.386719 105.296875 99.105469 C 104.769531 98.824219 104.230469 98.570312 103.679688 98.34375 C 103.125 98.113281 102.5625 97.914062 101.992188 97.742188 C 101.421875 97.570312 100.839844 97.425781 100.253906 97.308594 C 99.667969 97.195312 99.078125 97.109375 98.484375 97.050781 C 97.890625 96.992188 97.292969 96.964844 96.695312 96.964844 C 96.097656 96.96875 95.503906 97 94.90625 97.058594 C 94.3125 97.117188 93.722656 97.207031 93.136719 97.328125 C 92.550781 97.445312 91.972656 97.589844 91.402344 97.765625 C 90.832031 97.941406 90.269531 98.144531 89.71875 98.375 C 89.167969 98.605469 88.628906 98.863281 88.105469 99.148438 C 87.578125 99.429688 87.066406 99.738281 86.570312 100.074219 C 86.078125 100.40625 85.597656 100.765625 85.140625 101.144531 C 84.679688 101.527344 84.238281 101.929688 83.816406 102.351562 L 11.054688 175.117188 C 10.636719 175.539062 10.234375 175.976562 9.855469 176.4375 C 9.476562 176.898438 9.121094 177.375 8.792969 177.871094 C 8.460938 178.367188 8.152344 178.875 7.871094 179.402344 C 7.589844 179.925781 7.335938 180.464844 7.109375 181.015625 C 6.878906 181.566406 6.679688 182.125 6.507812 182.695312 C 6.332031 183.265625 6.1875 183.84375 6.070312 184.429688 C 5.957031 185.011719 5.867188 185.601562 5.808594 186.195312 C 5.75 186.789062 5.722656 187.382812 5.722656 187.976562 C 5.722656 188.574219 5.75 189.167969 5.808594 189.761719 C 5.867188 190.355469 5.957031 190.941406 6.070312 191.527344 C 6.1875 192.109375 6.332031 192.6875 6.507812 193.257812 C 6.679688 193.828125 6.878906 194.390625 7.109375 194.9375 C 7.335938 195.488281 7.589844 196.027344 7.871094 196.554688 C 8.152344 197.078125 8.460938 197.589844 8.792969 198.082031 C 9.121094 198.578125 9.476562 199.054688 9.855469 199.515625 C 10.234375 199.976562 10.636719 200.417969 11.054688 200.839844 L 83.816406 273.601562 C 85.523438 275.3125 87.488281 276.628906 89.71875 277.550781 C 91.945312 278.476562 94.269531 278.933594 96.683594 278.933594 Z M 96.683594 278.933594 "/></g></g></svg>