<svg xmlns="http://www.w3.org/2000/svg" xmlns:xlink="http://www.w3.org/1999/xlink" width="500" zoomAndPan="magnify" viewBox="0 0 375 374.999991" height="500" preserveAspectRatio="xMidYMid meet" version="1.2"><defs><clipPath id="3bf072b931"><path d="M 5 96 L 370 96 L 370 278.933594 L 5 278.933594 Z M 5 96 "/></clipPath></defs><g id="aedfdc0b3b"><g clip-rule="nonzero" clip-path="url(#3bf072b931)"><path style=" stroke:none;fill-rule:nonzero;fill:#000000;fill-opacity:1;" d="M 278.316406 278.933594 C 277.421875 278.933594 276.53125 278.867188 275.644531 278.734375 C 274.761719 278.605469 273.890625 278.40625 273.035156 278.148438 C 272.179688 277.890625 271.347656 277.566406 270.539062 277.183594 C 269.730469 276.804688 268.953125 276.363281 268.210938 275.867188 C 267.464844 275.371094 266.761719 274.820312 266.101562 274.21875 C 265.4375 273.621094 264.820312 272.972656 264.253906 272.28125 C 263.6875 271.589844 263.171875 270.859375 262.714844 270.09375 C 262.253906 269.328125 261.851562 268.53125 261.511719 267.703125 C 261.167969 266.878906 260.886719 266.03125 260.671875 265.164062 C 260.453125 264.292969 260.300781 263.414062 260.210938 262.527344 C 260.125 261.636719 260.101562 260.742188 260.148438 259.851562 C 260.191406 258.957031 260.300781 258.070312 260.472656 257.195312 C 260.648438 256.316406 260.886719 255.457031 261.1875 254.613281 C 261.488281 253.773438 261.851562 252.957031 262.273438 252.167969 C 262.691406 251.378906 263.171875 250.625 263.703125 249.90625 C 264.234375 249.1875 264.820312 248.511719 265.449219 247.878906 L 307.160156 206.167969 L 23.652344 206.167969 C 23.054688 206.167969 22.460938 206.140625 21.867188 206.082031 C 21.273438 206.023438 20.6875 205.933594 20.101562 205.820312 C 19.519531 205.703125 18.941406 205.558594 18.371094 205.386719 C 17.800781 205.210938 17.242188 205.011719 16.691406 204.785156 C 16.140625 204.554688 15.601562 204.300781 15.078125 204.019531 C 14.550781 203.738281 14.039062 203.433594 13.546875 203.101562 C 13.050781 202.773438 12.570312 202.417969 12.113281 202.039062 C 11.652344 201.660156 11.210938 201.261719 10.789062 200.839844 C 10.367188 200.417969 9.96875 199.976562 9.589844 199.519531 C 9.210938 199.058594 8.859375 198.578125 8.527344 198.082031 C 8.195312 197.589844 7.890625 197.078125 7.609375 196.550781 C 7.328125 196.027344 7.074219 195.488281 6.84375 194.9375 C 6.617188 194.386719 6.417969 193.828125 6.246094 193.257812 C 6.070312 192.6875 5.925781 192.109375 5.808594 191.527344 C 5.695312 190.941406 5.605469 190.351562 5.546875 189.761719 C 5.488281 189.167969 5.460938 188.574219 5.460938 187.976562 C 5.460938 187.382812 5.488281 186.789062 5.546875 186.195312 C 5.605469 185.601562 5.695312 185.011719 5.808594 184.429688 C 5.925781 183.84375 6.070312 183.265625 6.246094 182.695312 C 6.417969 182.125 6.617188 181.566406 6.84375 181.015625 C 7.074219 180.464844 7.328125 179.929688 7.609375 179.402344 C 7.890625 178.878906 8.195312 178.367188 8.527344 177.871094 C 8.859375 177.375 9.210938 176.898438 9.589844 176.4375 C 9.96875 175.976562 10.367188 175.535156 10.789062 175.113281 C 11.210938 174.691406 11.652344 174.292969 12.113281 173.914062 C 12.570312 173.539062 13.050781 173.183594 13.546875 172.851562 C 14.039062 172.519531 14.550781 172.214844 15.078125 171.933594 C 15.601562 171.652344 16.140625 171.398438 16.691406 171.171875 C 17.242188 170.945312 17.800781 170.742188 18.371094 170.570312 C 18.941406 170.398438 19.519531 170.253906 20.101562 170.136719 C 20.6875 170.019531 21.273438 169.933594 21.867188 169.875 C 22.460938 169.816406 23.054688 169.785156 23.652344 169.785156 L 307.160156 169.785156 L 265.449219 128.074219 C 265.027344 127.65625 264.625 127.214844 264.242188 126.753906 C 263.863281 126.292969 263.503906 125.816406 263.171875 125.320312 C 262.835938 124.824219 262.527344 124.3125 262.246094 123.789062 C 261.960938 123.261719 261.707031 122.722656 261.476562 122.171875 C 261.246094 121.621094 261.042969 121.058594 260.867188 120.488281 C 260.691406 119.917969 260.546875 119.339844 260.425781 118.753906 C 260.308594 118.167969 260.21875 117.578125 260.160156 116.984375 C 260.101562 116.386719 260.070312 115.792969 260.066406 115.195312 C 260.066406 114.597656 260.09375 114 260.152344 113.40625 C 260.210938 112.8125 260.296875 112.222656 260.414062 111.636719 C 260.527344 111.050781 260.671875 110.46875 260.84375 109.898438 C 261.015625 109.328125 261.21875 108.765625 261.445312 108.210938 C 261.675781 107.660156 261.929688 107.121094 262.210938 106.59375 C 262.492188 106.066406 262.796875 105.554688 263.128906 105.058594 C 263.460938 104.558594 263.816406 104.082031 264.195312 103.617188 C 264.574219 103.15625 264.976562 102.714844 265.398438 102.292969 C 265.820312 101.871094 266.261719 101.46875 266.722656 101.089844 C 267.1875 100.710938 267.664062 100.355469 268.164062 100.023438 C 268.660156 99.695312 269.171875 99.386719 269.699219 99.105469 C 270.226562 98.824219 270.765625 98.570312 271.316406 98.34375 C 271.871094 98.113281 272.433594 97.914062 273.003906 97.742188 C 273.578125 97.570312 274.15625 97.425781 274.742188 97.308594 C 275.328125 97.195312 275.917969 97.109375 276.511719 97.050781 C 277.109375 96.992188 277.703125 96.964844 278.300781 96.964844 C 278.898438 96.96875 279.496094 97 280.089844 97.058594 C 280.683594 97.117188 281.273438 97.207031 281.859375 97.328125 C 282.445312 97.445312 283.023438 97.589844 283.59375 97.765625 C 284.164062 97.941406 284.726562 98.144531 285.277344 98.375 C 285.828125 98.605469 286.367188 98.863281 286.894531 99.148438 C 287.417969 99.429688 287.929688 99.738281 288.425781 100.074219 C 288.921875 100.40625 289.398438 100.765625 289.859375 101.144531 C 290.316406 101.527344 290.757812 101.929688 291.179688 102.351562 L 363.941406 175.117188 C 364.363281 175.539062 364.761719 175.976562 365.140625 176.4375 C 365.519531 176.898438 365.875 177.375 366.207031 177.871094 C 366.535156 178.367188 366.84375 178.875 367.125 179.402344 C 367.40625 179.925781 367.660156 180.464844 367.886719 181.015625 C 368.117188 181.566406 368.316406 182.125 368.492188 182.695312 C 368.664062 183.265625 368.808594 183.84375 368.925781 184.429688 C 369.042969 185.011719 369.128906 185.601562 369.1875 186.195312 C 369.246094 186.789062 369.273438 187.382812 369.273438 187.976562 C 369.273438 188.574219 369.246094 189.167969 369.1875 189.761719 C 369.128906 190.355469 369.042969 190.941406 368.925781 191.527344 C 368.808594 192.109375 368.664062 192.6875 368.492188 193.257812 C 368.316406 193.828125 368.117188 194.390625 367.886719 194.9375 C 367.660156 195.488281 367.40625 196.027344 367.125 196.554688 C 366.84375 197.078125 366.535156 197.589844 366.207031 198.082031 C 365.875 198.578125 365.519531 199.054688 365.140625 199.515625 C 364.761719 199.976562 364.363281 200.417969 363.941406 200.839844 L 291.179688 273.601562 C 289.476562 275.3125 287.507812 276.628906 285.277344 277.550781 C 283.050781 278.476562 280.726562 278.933594 278.316406 278.933594 Z M 278.316406 278.933594 "/></g></g></svg>