<svg xmlns="http://www.w3.org/2000/svg" xmlns:xlink="http://www.w3.org/1999/xlink" width="500" zoomAndPan="magnify" viewBox="0 0 375 374.999991" height="500" preserveAspectRatio="xMidYMid meet" version="1.2"><defs><clipPath id="b11c437cc5"><path d="M 55.46875 55.46875 L 319.46875 55.46875 L 319.46875 319.46875 L 55.46875 319.46875 Z M 55.46875 55.46875 "/></clipPath></defs><g id="08cf2b92d4"><path style=" stroke:none;fill-rule:nonzero;fill:#8c52ff;fill-opacity:1;" d="M 244.863281 124.339844 L 130.078125 124.339844 C 126.910156 124.339844 124.339844 126.910156 124.339844 130.078125 L 124.339844 244.863281 C 124.339844 248.035156 126.910156 250.601562 130.078125 250.601562 L 244.863281 250.601562 C 248.035156 250.601562 250.601562 248.035156 250.601562 244.863281 L 250.601562 130.078125 C 250.601562 126.910156 248.035156 124.339844 244.863281 124.339844 Z M 239.121094 239.121094 L 135.816406 239.121094 L 135.816406 135.816406 L 239.121094 135.816406 Z M 239.121094 239.121094 "/><g clip-rule="nonzero" clip-path="url(#b11c437cc5)"><path style=" stroke:none;fill-rule:nonzero;fill:#8c52ff;fill-opacity:1;" d="M 313.730469 158.773438 C 316.90625 158.773438 319.46875 156.203125 319.46875 153.035156 C 319.46875 149.867188 316.90625 147.296875 313.730469 147.296875 L 285.035156 147.296875 L 285.035156 124.339844 L 313.730469 124.339844 C 316.90625 124.339844 319.46875 121.769531 319.46875 118.601562 C 319.46875 115.433594 316.90625 112.863281 313.730469 112.863281 L 285.035156 112.863281 L 285.035156 107.121094 C 285.035156 97.628906 277.308594 89.90625 267.816406 89.90625 L 262.078125 89.90625 L 262.078125 61.210938 C 262.078125 58.042969 259.511719 55.46875 256.339844 55.46875 C 253.164062 55.46875 250.601562 58.042969 250.601562 61.210938 L 250.601562 89.90625 L 227.644531 89.90625 L 227.644531 61.210938 C 227.644531 58.042969 225.078125 55.46875 221.90625 55.46875 C 218.730469 55.46875 216.164062 58.042969 216.164062 61.210938 L 216.164062 89.90625 L 193.210938 89.90625 L 193.210938 61.210938 C 193.210938 58.042969 190.636719 55.46875 187.46875 55.46875 C 184.300781 55.46875 181.730469 58.042969 181.730469 61.210938 L 181.730469 89.90625 L 158.773438 89.90625 L 158.773438 61.210938 C 158.773438 58.042969 156.203125 55.46875 153.035156 55.46875 C 149.867188 55.46875 147.296875 58.042969 147.296875 61.210938 L 147.296875 89.90625 L 124.339844 89.90625 L 124.339844 61.210938 C 124.339844 58.042969 121.769531 55.46875 118.601562 55.46875 C 115.433594 55.46875 112.863281 58.042969 112.863281 61.210938 L 112.863281 89.90625 L 107.121094 89.90625 C 97.628906 89.90625 89.90625 97.628906 89.90625 107.121094 L 89.90625 112.863281 L 61.210938 112.863281 C 58.042969 112.863281 55.46875 115.433594 55.46875 118.601562 C 55.46875 121.769531 58.042969 124.339844 61.210938 124.339844 L 89.90625 124.339844 L 89.90625 147.296875 L 61.210938 147.296875 C 58.042969 147.296875 55.46875 149.867188 55.46875 153.035156 C 55.46875 156.203125 58.042969 158.773438 61.210938 158.773438 L 89.90625 158.773438 L 89.90625 181.730469 L 61.210938 181.730469 C 58.042969 181.730469 55.46875 184.300781 55.46875 187.46875 C 55.46875 190.636719 58.042969 193.210938 61.210938 193.210938 L 89.90625 193.210938 L 89.90625 216.164062 L 61.210938 216.164062 C 58.042969 216.164062 55.46875 218.730469 55.46875 221.90625 C 55.46875 225.078125 58.042969 227.644531 61.210938 227.644531 L 89.90625 227.644531 L 89.90625 250.601562 L 61.210938 250.601562 C 58.042969 250.601562 55.46875 253.164062 55.46875 256.339844 C 55.46875 259.511719 58.042969 262.078125 61.210938 262.078125 L 89.90625 262.078125 L 89.90625 267.816406 C 89.90625 277.308594 97.628906 285.035156 107.121094 285.035156 L 112.863281 285.035156 L 112.863281 313.730469 C 112.863281 316.90625 115.433594 319.46875 118.601562 319.46875 C 121.769531 319.46875 124.339844 316.90625 124.339844 313.730469 L 124.339844 285.035156 L 147.296875 285.035156 L 147.296875 313.730469 C 147.296875 316.90625 149.867188 319.46875 153.035156 319.46875 C 156.203125 319.46875 158.773438 316.90625 158.773438 313.730469 L 158.773438 285.035156 L 181.730469 285.035156 L 181.730469 313.730469 C 181.730469 316.90625 184.300781 319.46875 187.46875 319.46875 C 190.636719 319.46875 193.210938 316.90625 193.210938 313.730469 L 193.210938 285.035156 L 216.164062 285.035156 L 216.164062 313.730469 C 216.164062 316.90625 218.730469 319.46875 221.90625 319.46875 C 225.078125 319.46875 227.644531 316.90625 227.644531 313.730469 L 227.644531 285.035156 L 250.601562 285.035156 L 250.601562 313.730469 C 250.601562 316.90625 253.164062 319.46875 256.339844 319.46875 C 259.511719 319.46875 262.078125 316.90625 262.078125 313.730469 L 262.078125 285.035156 L 267.816406 285.035156 C 277.308594 285.035156 285.035156 277.308594 285.035156 267.816406 L 285.035156 262.078125 L 313.730469 262.078125 C 316.90625 262.078125 319.46875 259.511719 319.46875 256.339844 C 319.46875 253.164062 316.90625 250.601562 313.730469 250.601562 L 285.035156 250.601562 L 285.035156 227.644531 L 313.730469 227.644531 C 316.90625 227.644531 319.46875 225.078125 319.46875 221.90625 C 319.46875 218.730469 316.90625 216.164062 313.730469 216.164062 L 285.035156 216.164062 L 285.035156 193.210938 L 313.730469 193.210938 C 316.90625 193.210938 319.46875 190.636719 319.46875 187.46875 C 319.46875 184.300781 316.90625 181.730469 313.730469 181.730469 L 285.035156 181.730469 L 285.035156 158.773438 Z M 273.558594 267.816406 C 273.558594 270.984375 270.984375 273.558594 267.816406 273.558594 L 107.121094 273.558594 C 103.960938 273.558594 101.382812 270.984375 101.382812 267.816406 L 101.382812 107.121094 C 101.382812 103.960938 103.960938 101.382812 107.121094 101.382812 L 267.816406 101.382812 C 270.984375 101.382812 273.558594 103.960938 273.558594 107.121094 Z M 273.558594 267.816406 "/></g></g></svg>