<?xml version="1.0" encoding="utf-8"?>
<!-- Generator: Adobe Illustrator 26.0.1, SVG Export Plug-In . SVG Version: 6.00 Build 0)  -->
<svg version="1.1" id="Layer_1" xmlns="http://www.w3.org/2000/svg" xmlns:xlink="http://www.w3.org/1999/xlink" x="0px" y="0px"
	 viewBox="0 0 1000 1000" style="enable-background:new 0 0 1000 1000;" xml:space="preserve">
<style type="text/css">
	.st0{fill:#FFFFFF;}
	.st1{fill:#1D1D1B;}
	.st2{fill:#FFCB00;}
</style>
<rect x="0" class="st0" width="1000" height="1000"/>
<g>
	<g>
		<path class="st1" d="M637.6,353.2c4.1,6.9,0.9,12.6-7.1,12.6h-98.1c-8.1,0-11.3-5.7-7.1-12.6l6.2-10.3
			c4.1-6.9,10.9-18.2,15.1-25.1l27.4-45.6c4.1-6.9,10.9-6.9,15.1,0l27.4,45.6c4.1,6.9,10.9,18.2,15.1,25.1L637.6,353.2z"/>
	</g>
	<g>
		<path class="st1" d="M768.3,727.9c4.2,6.8,1.1,12.5-6.9,12.5H238.6c-8.1,0-11.2-5.6-6.9-12.5l76.6-123.8
			c4.2-6.8,11.2-18.1,15.4-24.9l76.6-123.7c4.2-6.8,14.3-12.5,22.4-12.5h154.8c8.1,0,18.1,5.6,22.4,12.5l76.6,123.7
			c4.2,6.8,11.2,18.1,15.4,24.9L768.3,727.9z"/>
	</g>
	<g>
		<path class="st1" d="M805.9,465c4.1,6.9,0.9,12.6-7.1,12.6h-98.1c-8.1,0-11.3-5.7-7.1-12.6l6.2-10.3c4.1-6.9,10.9-18.2,15.1-25.1
			l27.4-45.6c4.1-6.9,10.9-6.9,15.1,0l27.4,45.6c4.1,6.9,10.9,18.2,15.1,25.1L805.9,465z"/>
	</g>
	<g>
		<path class="st1" d="M306.4,465c4.1,6.9,0.9,12.6-7.1,12.6h-98.1c-8.1,0-11.3-5.7-7.1-12.6l6.2-10.3c4.1-6.9,10.9-18.2,15.1-25.1
			l27.4-45.6c4.1-6.9,10.9-6.9,15.1,0l27.4,45.6c4.1,6.9,10.9,18.2,15.1,25.1L306.4,465z"/>
	</g>
	<g>
		<path class="st1" d="M474.8,353.2c4.1,6.9,0.9,12.6-7.1,12.6h-98.1c-8.1,0-11.3-5.7-7.1-12.6l6.2-10.3
			c4.1-6.9,10.9-18.2,15.1-25.1l27.4-45.6c4.1-6.9,10.9-6.9,15.1,0l27.4,45.6c4.1,6.9,10.9,18.2,15.1,25.1L474.8,353.2z"/>
	</g>
</g>
</svg>
